<svg viewBox="0 0 1081 56" xmlns="http://www.w3.org/2000/svg"><path d="M298.2 14.1c0 2-1.6 3.6-3.7 3.6s-3.6-1.6-3.6-3.6 1.6-3.6 3.6-3.6c2.1 0 3.7 1.6 3.7 3.6zm-15.1 7.3v.9s-1.7-2.2-5.4-2.2c-6.1 0-10.9 4.7-10.9 11.1s4.7 11.1 10.9 11.1c3.8 0 5.4-2.3 5.4-2.3v1c0 .4.3.8.8.8h4.5V20.6h-4.5c-.2 0-.4.1-.6.2-.1.2-.2.4-.2.6zm0 13.5c-.8 1.2-2.5 2.3-4.5 2.3-3.6 0-6.3-2.2-6.3-6.1s2.8-6.1 6.3-6.1c2 0 3.8 1.1 4.5 2.3zm8.7-14.3h5.4v21.1h-5.4zm80.6-.5c-3.7 0-5.4 2.2-5.4 2.2V10.5h-5.4v31.2h4.5c.2 0 .4-.1.6-.2.1-.1.2-.3.2-.6v-1s1.7 2.3 5.4 2.3c6.1 0 10.9-4.7 10.9-11.1s-4.8-11-10.8-11zm-.9 17.1c-2.1 0-3.7-1.1-4.5-2.3v-7.5c.8-1.1 2.6-2.3 4.5-2.3 3.6 0 6.3 2.2 6.3 6.1s-2.7 6-6.3 6zm-12.8-8v12.6h-5.4v-12c0-3.5-1.1-4.9-4.2-4.9-1.6 0-3.3.8-4.4 2.1v14.7h-5.4V20.6h4.3c.5 0 .8.4.8.8v.9c1.6-1.6 3.6-2.2 5.7-2.2 2.4 0 4.3.7 5.9 2 2 1.6 2.7 3.6 2.7 7.1zm-32.4-9.1c-3.7 0-5.4 2.2-5.4 2.2V10.5h-5.4v31.2h4.5c.2 0 .4-.1.6-.2.1-.1.2-.3.2-.6v-1s1.7 2.3 5.4 2.3c6.1 0 10.9-4.7 10.9-11.1.1-6.3-4.7-11-10.8-11zm-.9 17.1c-2.1 0-3.7-1.1-4.5-2.3v-7.5c.8-1.1 2.6-2.3 4.5-2.3 3.6 0 6.3 2.2 6.3 6.1s-2.7 6-6.3 6zm-14.6-17.1c1.6 0 2.5.3 2.5.3v5s-4.5-1.5-7.3 1.7v14.7h-5.4V20.6h4.5c.4 0 .8.4.8.8v.9c1-1.2 3.2-2.2 4.9-2.2zm-56 19.7c-.3-.7-.6-1.4-.8-2-.4-1-.9-2-1.3-2.9l-.1-.1c-3.9-8.5-8.1-17-12.4-25.3l-.2-.3c-.5-.8-.9-1.7-1.3-2.6-.6-1-1.1-2.1-2-3.1-1.8-2.2-4.4-3.5-7.1-3.5-2.8 0-5.3 1.2-7.2 3.4-.8 1-1.5 2.1-2 3.1-.4.9-.9 1.8-1.3 2.6l-.2.3c-4.3 8.4-8.5 16.9-12.4 25.3l-.1.1c-.4.9-.8 1.8-1.3 2.9-.3.6-.6 1.3-.8 2-.7 2.1-1 4-.7 6.1s1.1 4 2.4 5.6 3 2.9 4.9 3.7c1.5.6 3 .9 4.5.9.4 0 1-.1 1.5-.1 1.9-.2 3.8-.8 5.6-1.9 2.3-1.3 4.5-3.1 7-5.8 2.5 2.7 4.7 4.5 7 5.8 1.9 1.1 3.8 1.7 5.6 1.9.5.1 1 .1 1.5.1 1.6 0 3.1-.3 4.5-.9 3.9-1.6 6.7-5.2 7.3-9.3.4-2 .1-3.9-.6-6zm-25.3 2.9c-3-3.8-5-7.4-5.7-10.4-.3-1.3-.3-2.4-.2-3.4.1-.8.4-1.7.9-2.4 1.1-1.5 2.9-2.5 4.9-2.5 2.1 0 3.9.9 4.9 2.5.4.7.8 1.5.9 2.4.2 1 .1 2.2-.2 3.4-.5 3-2.5 6.5-5.5 10.4zm22.4 2.6c-.4 2.9-2.4 5.4-5.1 6.6-1.3.6-2.8.7-4.3.6-1.4-.2-2.8-.6-4.3-1.5-2-1.1-4-2.9-6.4-5.4 3.7-4.5 6-8.7 6.8-12.4.4-1.7.4-3.3.3-4.8-.2-1.4-.7-2.7-1.5-3.8-1.7-2.5-4.7-4-7.9-4-3.3 0-6.2 1.5-7.9 4-.8 1.1-1.3 2.4-1.5 3.8-.2 1.6-.1 3.2.3 4.8.8 3.7 3.1 7.9 6.8 12.4-2.3 2.6-4.4 4.3-6.4 5.4-1.5.8-2.9 1.3-4.3 1.5s-2.9 0-4.3-.6c-2.8-1.1-4.7-3.6-5.1-6.6-.2-1.4-.1-2.8.5-4.4.2-.6.5-1.1.7-1.8.4-.9.8-1.8 1.3-2.8l.1-.1c3.9-8.4 8-16.9 12.4-25.2l.2-.3c.4-.8.9-1.7 1.3-2.6s1-1.7 1.6-2.5c1.2-1.3 2.8-2.1 4.5-2.1s3.3.7 4.5 2.1c.6.7 1.1 1.6 1.6 2.5.4.8.9 1.7 1.3 2.6l.2.3c4.3 8.3 8.4 16.7 12.3 25.2v.1c.4.9.8 1.9 1.3 2.8.3.7.6 1.2.7 1.8.4 1.6.5 3 .3 4.4zm221.9-22.7h-10.7c-.1 0-.3.1-.4.1-.1.1-.1.2-.1.4v5.2c0 .3.2.5.5.5h4.2v6.4s-.9.3-3.5.3c-3 0-7.3-1.1-7.3-10.4s4.4-10.5 8.6-10.5c3.6 0 5.2.6 6.1.9.3.1.6-.2.6-.5l1.2-5v-.2c0-.1-.1-.1-.1-.2-.4-.3-2.8-1.6-9-1.6-7.1 0-14.4 3-14.4 17.5s8.4 16.6 15.4 16.6c5.8 0 9.4-2.5 9.4-2.5.1-.1.2-.3.2-.4V23.1c0-.1-.1-.3-.1-.4-.4-.1-.5-.1-.6-.1zm55-12.9v-.2c0-.1-.1-.1-.1-.2 0 0-.1-.1-.2-.1h-6.4c-.1 0-.1.1-.2.1 0 0-.1.1-.1.2v11.7h-9.4V9.7v-.2c0-.1-.1-.1-.1-.2s-.1-.1-.2-.1h-6.4c-.1 0-.1.1-.2.1 0 0-.1.1-.1.2V41c0 .3.2.5.5.5h6.2c.1 0 .1-.1.2-.1 0 0 .1-.1.1-.2V27.6h9.4V41c0 .1.1.3.1.4.1.1.2.1.4.1h6.2c.1 0 .1-.1.2-.1 0 0 .1-.1.1-.2V41zm-43.7 4.1c0-.5-.1-1-.3-1.5s-.5-.9-.8-1.3c-.4-.4-.8-.6-1.3-.8s-1-.3-1.5-.3-1 .1-1.5.3-.9.5-1.3.8c-.4.4-.6.8-.8 1.3s-.3 1-.3 1.5c0 1 .4 2 1.1 2.7s1.7 1.1 2.7 1.1 2-.4 2.7-1.1c.9-.7 1.3-1.6 1.3-2.7zm-.4 20.6V20c0-.1-.1-.3-.1-.4-.1-.1-.2-.1-.4-.1h-6c-.3 0-.5.3-.5.6v20.7c0 .6.4.8.9.8h5.4c.6 0 .7-.3.7-.8zm66.9-14.9h-6.2c-.1 0-.1.1-.2.1 0 0-.1.1-.1.2v15.5s-1.5 1.1-3.7 1.1-2.7-1-2.7-3.1V20c0-.3-.2-.5-.5-.5h-6c-.1 0-.3.1-.4.1-.1.1-.1.2-.1.4v14.4c0 6.2 3.5 7.7 8.3 7.7 3.9 0 7.1-2.2 7.1-2.2s.2 1.1.2 1.3c.1.1.2.3.4.3h3.8c.1 0 .3-.1.4-.1.1-.1.1-.2.1-.4V20c.1-.3-.1-.5-.4-.5zm13.9 16.9c-2.1-.1-3.5-1-3.5-1v-9.9s1.4-.8 3.1-1c2.1-.2 4.2.5 4.2 5.5 0 5.4-.9 6.5-3.8 6.4zm2.4-17.6c-3.4 0-5.7 1.5-5.7 1.5V9.7v-.2c0-.1-.1-.1-.1-.2 0 0-.1-.1-.2-.1h-6.4c-.1 0-.1.1-.2.1 0 0-.1.1-.1.2V41c0 .1.1.3.1.4.1.1.2.1.4.1h4.2c.2 0 .3-.1.4-.3s.3-1.4.3-1.4 2.5 2.3 7.1 2.3c5.5 0 8.6-2.8 8.6-12.4s-5-10.9-8.4-10.9zm-66 .7h-4.5v-5.9c0-.2-.1-.3-.4-.3h-6.1c-.2 0-.4.1-.4.3v6.1s-3.1.7-3.3.8c-.1 0-.2.1-.3.2s-.1.2-.1.3v3.8c0 .3.2.5.5.5h3.1v9.2c0 6.9 4.8 7.5 8.1 7.5 1.5 0 3.3-.5 3.6-.6.2-.1.3-.2.3-.4v-4.2c0-.3-.2-.5-.5-.5s-.9.1-1.6.1c-2.2 0-3-1-3-2.3v-8.8h4.7c.1 0 .1-.1.2-.1 0 0 .1-.1.1-.2v-5-.2c0-.1-.1-.1-.1-.2 0 0-.1-.1-.2-.1h-.1M655.4 37c1.2 0 2.5-.2 3.6-.7 0 0 2.3 3.6 2.4 3.7-2.1 1.1-4.3 1.6-6.7 1.6-7.1 0-12.3-4.7-12.3-12.2 0-7.6 5.5-12.3 12.3-12.3 2.4 0 4.4.5 6.3 1.6-.2.4-2.2 3.8-2.2 3.8-1.2-.5-2.4-.7-3.6-.7-4.2 0-7.5 2.7-7.5 7.6 0 4.7 3.1 7.6 7.7 7.6zm18-19.8c7 0 12.1 5 12.1 12.3 0 7.2-5.1 12.2-12.1 12.2s-12.1-5-12.1-12.2c0-7.4 5.1-12.3 12.1-12.3zm0 4.4c-3.9 0-6.8 3-6.8 7.8 0 4.7 2.9 7.7 6.8 7.7 4 0 6.8-3 6.8-7.7s-2.8-7.8-6.8-7.8zm15.5 19.5V17.7h5.2v23.4zm-.7-30.6c0-1.8 1.5-3.2 3.3-3.2 1.7 0 3.3 1.4 3.3 3.2s-1.5 3.3-3.3 3.3-3.3-1.5-3.3-3.3zm10.5 8.7c3.3-1.3 7.3-2 10.7-2 6 0 9.8 2.3 9.8 8.9v15.1H714V26.5c0-3.4-2.1-4.6-5-4.6-1.9 0-3.7.3-5.1.7v18.5h-5.2zm24.9-14h5.2v13.2c1.1-.6 3.3-1.2 5.3-1.2 6.8 0 11.9 4.3 11.9 11.8 0 7.6-5 12.6-13.7 12.6-3 0-5.9-.5-8.7-1.5zm5.2 31.4c1 .3 2.3.5 3.7.5 4.8 0 8.3-2.6 8.3-8 0-4.5-3.2-7.2-7.2-7.2-2.1 0-3.7.5-4.7 1.1zm32.3-11.2c0-2.5-1.9-3.7-4.5-3.7-2.7 0-4.8.8-6.8 1.9v-4.5c2.1-1.2 4.7-1.9 7.6-1.9 5.1 0 8.8 2.1 8.8 8v15.5c-2.2.6-5.4 1-8 1-6.1 0-10.5-1.9-10.5-7.1 0-4.8 4.1-7.1 10.8-7.1h2.6zm0 5.4h-2.2c-3.7 0-6 1.1-6 3.4 0 2.4 2.2 3.4 5.4 3.4.8 0 1.9-.1 2.9-.3v-6.5zm9 3.9c2.2 1.6 4.8 2.6 7.1 2.6s3.9-.8 3.9-2.6c0-1.9-1.4-2.6-4.4-3.4-4.9-1.1-6.9-3.1-6.9-7.1 0-4.8 3.6-7.1 8.4-7.1 2.6 0 4.8.6 6.7 1.8v4.8c-2.1-1.5-4.1-2.4-6.6-2.4-2.3 0-3.5 1.1-3.5 2.6s1 2.3 3.7 3.1c5.3 1.2 7.7 3.2 7.7 7.4 0 4.9-3.8 7.1-8.8 7.1-2.8 0-5.5-.7-7.2-1.9zm23.2-4.1v.1c.3 4.2 3.9 6.4 7.6 6.4 3.2 0 5.6-.7 7.9-2.3v4.6c-2.1 1.5-5.2 2.2-8.3 2.2-7.3 0-12.3-4.6-12.3-12 0-7.5 4.9-12.4 11.3-12.4 6.8 0 10.1 4.4 10.1 10.8v2.6zm11.4-3.4c-.1-3.6-1.9-5.7-5.3-5.7-3 0-5.2 2.1-5.9 5.7zM59.3 30.8c0 6.5-5.1 11.4-11.4 11.4s-11.4-4.8-11.4-11.4 5.1-11.4 11.4-11.4 11.4 4.8 11.4 11.4zm-5 0c0-4.1-3-6.9-6.4-6.9s-6.4 2.8-6.4 6.9c0 4 3 6.9 6.4 6.9s6.4-2.8 6.4-6.9zm29.6 0c0 6.5-5.1 11.4-11.4 11.4s-11.4-4.8-11.4-11.4 5.1-11.4 11.4-11.4 11.4 4.8 11.4 11.4zm-5 0c0-4.1-3-6.9-6.4-6.9s-6.4 2.8-6.4 6.9c0 4 3 6.9 6.4 6.9s6.4-2.8 6.4-6.9zm28.6-10.7v20.4c0 8.4-5 11.8-10.8 11.8-5.5 0-8.8-3.7-10.1-6.7l4.3-1.8c.8 1.9 2.7 4 5.7 4 3.7 0 6.1-2.3 6.1-6.7v-1.6h-.2c-1.1 1.4-3.3 2.6-6 2.6-5.7 0-10.9-5-10.9-11.3 0-6.4 5.2-11.4 10.9-11.4 2.7 0 4.9 1.2 6 2.5h.2V20zm-4.4 10.8c0-4-2.7-6.9-6.1-6.9s-6.3 2.9-6.3 6.9 2.9 6.8 6.3 6.8c3.5 0 6.1-2.9 6.1-6.8zm12.2-22.7v33.3h-4.9V8.2zm19 26.4l3.9 2.6c-1.3 1.9-4.3 5-9.5 5-6.5 0-11.3-5-11.3-11.4 0-6.8 4.9-11.4 10.7-11.4 5.9 0 8.8 4.7 9.7 7.2l.5 1.3-15.2 6.3c1.2 2.3 3 3.4 5.5 3.4 2.7.1 4.4-1.1 5.7-3zm-11.9-4.1l10.2-4.2c-.6-1.4-2.2-2.4-4.2-2.4-2.6-.1-6.1 2.2-6 6.6zM18.1 27.9V23h16.3c.2.8.2 1.8.2 2.9 0 3.6-1 8.1-4.2 11.3-3.1 3.2-7.1 5-12.3 5C8.4 42.2.2 34.3.2 24.5S8.4 6.9 18.1 6.9c5.4 0 9.2 2.1 12.1 4.9l-3.4 3.4c-2.1-1.9-4.9-3.4-8.7-3.4-7.1 0-12.7 5.7-12.7 12.8S11 37.4 18.1 37.4c4.6 0 7.2-1.8 8.9-3.5 1.4-1.4 2.3-3.3 2.6-6zm928.6 2.7l-1.2 3.5h-.1c-.3-1.2-.7-2.3-1.2-3.4l-6.6-16.6h-6.5v26.5h4.3V24.2v-3.6c0-.7-.1-1.3-.1-1.7h.1c.2 1 .4 1.8.6 2.3l8 19.3h3l7.9-19.5c.2-.4.3-1.3.5-2.1h.1c-.1 1.6-.2 3.2-.2 4.8v16.8h4.6V14h-6.2zm17.3-9.1h4.5v19H964zm2.3-8c-.8 0-1.4.3-1.9.8s-.8 1.1-.8 1.8.3 1.3.8 1.8 1.1.7 1.9.7 1.4-.3 1.9-.7c.5-.5.8-1.1.8-1.8s-.3-1.3-.8-1.9c-.5-.5-1.1-.7-1.9-.7zm18 7.8c-.8-.2-1.7-.3-2.5-.3-2 0-3.9.4-5.4 1.3s-2.8 2.1-3.6 3.7-1.2 3.4-1.2 5.5c0 1.8.4 3.4 1.2 4.9.8 1.4 1.9 2.6 3.4 3.4 1.4.8 3 1.2 4.9 1.2 2.1 0 3.9-.4 5.4-1.3v-4.1l-.2.1c-.7.5-1.4.9-2.2 1.1-.8.3-1.5.4-2.1.4-1.8 0-3.2-.5-4.2-1.6s-1.5-2.6-1.5-4.5c0-2 .5-3.5 1.6-4.6s2.5-1.7 4.2-1.7c1.4 0 2.9.5 4.2 1.4l.2.1V22c-.7-.3-1.3-.5-2.2-.7zm14.7-.1c-1.1 0-2.2.4-3 1.1-.8.6-1.3 1.5-1.7 2.6v-3.3h-4.5v19h4.5v-9.7c0-1.6.3-3 1.1-4s1.7-1.5 2.9-1.5c.4 0 .8.1 1.3.2s.8.3 1.1.4l.2.1v-4.5h-.1c-.4-.3-1-.4-1.8-.4zm12.1-.1c-3.1 0-5.6.9-7.4 2.7s-2.6 4.3-2.6 7.5c0 2.9.9 5.3 2.6 7.1 1.7 1.7 4 2.6 7 2.6s5.5-.9 7.2-2.8c1.8-1.8 2.6-4.3 2.6-7.4 0-3-.8-5.4-2.5-7.2-1.6-1.7-3.9-2.5-6.9-2.5zm3.6 14.6c-.8 1.1-2.1 1.6-3.7 1.6s-2.9-.5-3.8-1.6-1.4-2.6-1.4-4.6.5-3.6 1.4-4.7 2.2-1.6 3.8-1.6 2.8.5 3.7 1.6 1.4 2.6 1.4 4.6c-.2 2-.6 3.6-1.4 4.7zm15.8-6.3c-1.4-.6-2.3-1-2.7-1.4-.3-.3-.5-.8-.5-1.4 0-.5.2-1 .7-1.4.5-.3 1.1-.5 2-.5.8 0 1.5.1 2.3.3s1.4.5 2 .9l.2.1v-4.2h-.1c-.5-.2-1.2-.4-2-.6-.8-.1-1.6-.2-2.2-.2-2.1 0-3.9.5-5.2 1.6-1.4 1.1-2 2.5-2 4.2 0 .9.1 1.7.4 2.3.3.7.8 1.3 1.4 1.8s1.5 1 2.7 1.5c1 .4 1.8.8 2.3 1.1s.8.6 1 .8c.2.3.3.6.3 1.1 0 1.3-1 1.9-2.9 1.9-.8 0-1.5-.1-2.5-.4-.9-.3-1.7-.7-2.5-1.3l-.2-.1v4.4h.1c.7.3 1.4.5 2.4.8 1 .2 1.8.3 2.6.3 2.3 0 4.2-.5 5.5-1.6 1.4-1.1 2.1-2.5 2.1-4.3 0-1.3-.3-2.4-1.1-3.3-1.1-.9-2.3-1.8-4.1-2.4zm16.9-8.3c-3.1 0-5.6.9-7.4 2.7s-2.6 4.3-2.6 7.5c0 2.9.9 5.3 2.6 7.1 1.7 1.7 4.1 2.6 7 2.6 3 0 5.5-.9 7.2-2.8 1.8-1.8 2.6-4.3 2.6-7.4 0-3-.8-5.4-2.5-7.2-1.6-1.7-4-2.5-6.9-2.5zm3.5 14.6c-.8 1.1-2.1 1.6-3.7 1.6s-2.9-.5-3.8-1.6-1.4-2.6-1.4-4.6.5-3.6 1.4-4.7 2.2-1.6 3.8-1.6c1.5 0 2.8.5 3.7 1.6s1.4 2.6 1.4 4.6c-.1 2-.6 3.6-1.4 4.7zm29.7-10.6v-3.7h-4.5v-5.6h-.1l-4.2 1.3h-.1v4.3h-6.7V19c0-1.1.3-2 .8-2.5s1.2-.8 2.1-.8c.6 0 1.3.1 2 .4l.2.1v-3.9h-.1c-.6-.2-1.4-.3-2.5-.3-1.3 0-2.5.3-3.6.8-1 .6-1.9 1.4-2.4 2.4-.6 1-.9 2.2-.9 3.5v2.6h-3.1v3.6h3.1v15.4h4.5V25.1h6.7v9.8c0 4 1.9 6 5.7 6 .6 0 1.3-.1 1.9-.2.7-.1 1.1-.3 1.4-.4v-3.7l-.2.1c-.3.2-.5.3-.9.4-.3.1-.7.1-.9.1-.9 0-1.5-.2-1.9-.7s-.6-1.3-.6-2.4v-9zm-207-19.9h21v21h-21zm23.2 0h21v21h-21zm-23.2 23.2h21v21h-21zm23.2 0h21v21h-21z" fill="#979797"/></svg>