<svg fill="none" height="140" width="572" xmlns="http://www.w3.org/2000/svg">
  <clipPath id="a">
    <path d="M203 0h179.789v56H203z"/>
  </clipPath>
  <clipPath id="b">
    <path d="M0 95h167.263v37.579H0z"/>
  </clipPath>
  <clipPath id="c">
    <path d="M0 6.633h139.423V53.79H0z"/>
  </clipPath>
  <clipPath id="d">
    <path d="M203 95h207.001v44.21H203z"/>
  </clipPath>
  <clipPath id="e">
    <path d="M441 99h130.5v36H441z"/>
  </clipPath>
  <g clip-path="url(#a)">
    <path d="M297.758 14.07c0 2.018-1.629 3.644-3.651 3.644s-3.651-1.626-3.651-3.644 1.573-3.644 3.651-3.644c2.078.057 3.651 1.682 3.651 3.644zm-15.053 7.343v.897s-1.741-2.242-5.448-2.242c-6.122 0-10.896 4.653-10.896 11.1 0 6.39 4.718 11.098 10.896 11.098 3.763 0 5.448-2.298 5.448-2.298v.953c0 .448.337.785.787.785h4.549V20.629h-4.549a.803.803 0 00-.787.784zm0 13.51c-.842 1.233-2.527 2.298-4.549 2.298-3.595 0-6.347-2.242-6.347-6.054s2.752-6.054 6.347-6.054c1.966 0 3.763 1.121 4.549 2.298zm8.706-14.294h5.392v21.077h-5.392zm80.543-.56c-3.707 0-5.448 2.241-5.448 2.241V10.482h-5.392v31.224h4.549c.45 0 .787-.393.787-.785v-.953s1.741 2.298 5.448 2.298c6.122 0 10.896-4.708 10.896-11.099s-4.774-11.099-10.84-11.099zm-.899 17.096c-2.078 0-3.707-1.065-4.549-2.298v-7.512c.842-1.12 2.64-2.298 4.549-2.298 3.595 0 6.347 2.242 6.347 6.054s-2.752 6.054-6.347 6.054zm-12.749-7.96v12.557h-5.392v-11.94c0-3.476-1.124-4.877-4.157-4.877-1.629 0-3.314.84-4.381 2.074v14.687h-5.392V20.629h4.269c.449 0 .786.392.786.784v.897c1.573-1.625 3.651-2.242 5.729-2.242 2.359 0 4.325.673 5.898 2.018 1.909 1.57 2.64 3.588 2.64 7.12zm-32.409-9.137c-3.707 0-5.448 2.242-5.448 2.242V10.482h-5.392v31.224h4.55a.802.802 0 00.786-.785v-.953s1.741 2.298 5.448 2.298c6.122 0 10.897-4.708 10.897-11.099.056-6.39-4.718-11.099-10.841-11.099zm-.898 17.097c-2.078 0-3.707-1.065-4.55-2.298v-7.512c.843-1.12 2.64-2.298 4.55-2.298 3.594 0 6.347 2.242 6.347 6.054s-2.753 6.054-6.347 6.054zm-14.604-17.097c1.629 0 2.472.28 2.472.28v4.99s-4.494-1.514-7.302 1.681v14.743h-5.392V20.629h4.55c.449 0 .786.392.786.784v.897c1.011-1.177 3.201-2.242 4.886-2.242zM254.397 39.8c-.281-.673-.561-1.402-.842-2.018-.45-1.01-.899-1.962-1.292-2.86l-.056-.055A585.172 585.172 0 00239.794 9.53l-.169-.337c-.449-.84-.898-1.738-1.348-2.634-.561-1.01-1.123-2.075-2.022-3.084C234.458 1.233 231.874 0 229.122 0c-2.808 0-5.336 1.233-7.189 3.363-.843 1.01-1.46 2.074-2.022 3.083a114.34 114.34 0 01-1.348 2.635l-.169.336c-4.324 8.409-8.537 16.93-12.412 25.338l-.057.112c-.393.897-.842 1.85-1.291 2.859-.281.616-.562 1.289-.843 2.018-.73 2.074-.955 4.036-.674 6.054a11.917 11.917 0 007.302 9.305c1.46.617 2.977.897 4.549.897.45 0 1.011-.056 1.461-.112 1.853-.224 3.763-.841 5.616-1.906 2.303-1.29 4.494-3.14 6.965-5.83 2.471 2.69 4.718 4.54 6.965 5.83 1.853 1.065 3.763 1.682 5.616 1.906.45.056 1.011.112 1.461.112 1.572 0 3.145-.28 4.549-.897 3.932-1.57 6.684-5.157 7.302-9.305.449-1.962.224-3.924-.506-5.998zm-25.331 2.915c-3.033-3.812-4.999-7.4-5.673-10.427-.281-1.289-.337-2.41-.168-3.42a5.432 5.432 0 01.898-2.353c1.068-1.514 2.865-2.467 4.943-2.467s3.932.897 4.943 2.466c.449.673.786 1.458.898 2.355.169 1.009.113 2.186-.168 3.42-.674 2.97-2.64 6.558-5.673 10.426zm22.411 2.634c-.394 2.915-2.359 5.438-5.112 6.559-1.348.56-2.808.729-4.268.56-1.404-.168-2.809-.616-4.269-1.457-2.022-1.121-4.044-2.859-6.403-5.437 3.707-4.541 5.954-8.69 6.796-12.389.393-1.738.45-3.307.281-4.765-.225-1.401-.73-2.69-1.516-3.811-1.742-2.523-4.662-3.98-7.92-3.98s-6.178 1.513-7.919 3.98c-.787 1.12-1.292 2.41-1.517 3.811a11.617 11.617 0 00.281 4.765c.842 3.7 3.145 7.904 6.796 12.445-2.303 2.578-4.381 4.316-6.403 5.437-1.46.84-2.864 1.29-4.269 1.457a8.999 8.999 0 01-4.268-.56c-2.752-1.121-4.718-3.644-5.111-6.559-.169-1.401-.057-2.802.505-4.372.169-.56.449-1.121.73-1.794.393-.897.843-1.85 1.292-2.803l.056-.112c3.876-8.352 8.032-16.872 12.357-25.169l.168-.336c.45-.841.899-1.738 1.348-2.579.45-.897.955-1.737 1.573-2.466 1.18-1.346 2.752-2.074 4.493-2.074 1.742 0 3.314.728 4.494 2.074.618.729 1.123 1.57 1.572 2.466.45.841.899 1.738 1.348 2.579l.169.336a741.281 741.281 0 0112.3 25.225v.056c.45.897.843 1.906 1.292 2.803.281.673.562 1.234.73 1.794.45 1.458.618 2.859.394 4.316z" fill="#979797"/>
  </g>
  <g fill="#979797">
    <path d="M464.564 25.597h-10.667a.497.497 0 00-.499.495v5.183c0 .273.223.496.499.496h4.161v6.438s-.935.317-3.518.317c-3.047 0-7.305-1.107-7.305-10.41 0-9.305 4.433-10.529 8.595-10.529 3.603 0 5.155.63 6.143.934.31.095.597-.212.597-.486l1.19-5.007a.46.46 0 00-.19-.387c-.401-.285-2.848-1.645-9.03-1.645-7.121 0-14.425 3.01-14.425 17.483s8.363 16.63 15.41 16.63c5.835 0 9.375-2.478 9.375-2.478.146-.08.162-.283.162-.376V26.092a.497.497 0 00-.498-.495M519.537 12.73a.495.495 0 00-.495-.498h-6.006a.498.498 0 00-.497.498l.001 11.534h-9.362V12.73a.496.496 0 00-.495-.498h-6.006a.498.498 0 00-.497.498v31.232a.5.5 0 00.497.5h6.006a.497.497 0 00.495-.5v-13.36h9.362l-.016 13.36a.5.5 0 00.497.5h6.021a.497.497 0 00.495-.5zM475.898 16.828a3.877 3.877 0 00-3.873-3.885 3.878 3.878 0 00-3.873 3.885 3.882 3.882 0 003.873 3.889 3.881 3.881 0 003.873-3.888zM475.468 37.373V22.957a.498.498 0 00-.497-.498h-5.987c-.275 0-.52.282-.52.556v20.654c0 .607.38.788.873.788h5.394c.592 0 .737-.29.737-.798v-6.286M542.364 22.506h-5.961a.498.498 0 00-.495.5v15.313s-1.515 1.101-3.664 1.101-2.719-.969-2.719-3.06V23.006c0-.276-.222-.5-.496-.5h-6.049a.498.498 0 00-.496.5V37.37c0 6.211 3.483 7.73 8.275 7.73 3.932 0 7.101-2.157 7.101-2.157s.151 1.137.219 1.272c.069.134.247.27.439.27l3.848-.017a.5.5 0 00.497-.498l-.002-20.965c0-.276-.223-.5-.497-.5M556.303 39.401c-2.068-.062-3.47-.994-3.47-.994v-9.89s1.384-.843 3.081-.994c2.146-.19 4.214.453 4.214 5.541 0 5.365-.933 6.424-3.825 6.337zm2.351-17.596c-3.386 0-5.688 1.5-5.688 1.5V12.73a.497.497 0 00-.496-.498h-6.023a.497.497 0 00-.496.498v31.232c0 .275.222.5.497.5h4.179c.188 0 .331-.097.436-.266.104-.168.254-1.44.254-1.44s2.463 2.32 7.125 2.32c5.474 0 8.613-2.76 8.613-12.386 0-9.627-5.014-10.885-8.401-10.885M492.731 22.457h-4.506l-.007-5.915c0-.224-.116-.336-.376-.336h-6.14c-.238 0-.367.104-.367.332v6.113s-3.076.738-3.284.797a.496.496 0 00-.36.476v3.841c0 .276.222.5.496.5h3.148v9.24c0 6.862 4.845 7.536 8.114 7.536 1.494 0 3.281-.476 3.576-.585.178-.065.282-.248.282-.447l.005-4.226c0-.275-.235-.498-.498-.498s-.934.106-1.626.106c-2.213 0-2.963-1.022-2.963-2.346v-8.78h4.506a.498.498 0 00.497-.5v-4.81a.497.497 0 00-.497-.498"/>
  </g>
  <g clip-path="url(#b)">
    <path d="M13.017 126.859a9.92 9.92 0 003.65-.682c.01.022 2.333 3.627 2.366 3.652-2.103 1.128-4.301 1.625-6.704 1.625-7.144 0-12.329-4.7-12.329-12.203 0-7.558 5.45-12.258 12.329-12.258 2.449 0 4.38.531 6.324 1.569-.215.356-2.217 3.749-2.224 3.763a9.674 9.674 0 00-3.625-.682c-4.233 0-7.513 2.695-7.513 7.608 0 4.649 3.174 7.608 7.726 7.608zm18.017-19.866c7.038 0 12.117 4.968 12.117 12.258 0 7.237-5.08 12.203-12.117 12.203-6.983 0-12.062-4.964-12.062-12.203 0-7.29 5.079-12.258 12.062-12.258zm0 4.492c-3.914 0-6.772 3.012-6.772 7.766 0 4.703 2.857 7.713 6.774 7.713 4.021 0 6.825-3.01 6.825-7.713 0-4.754-2.804-7.766-6.827-7.766zm15.451 19.442v-23.406h5.237v23.406zm-.688-30.592c0-1.796 1.536-3.22 3.28-3.22 1.747 0 3.28 1.424 3.28 3.221 0 1.85-1.533 3.329-3.28 3.329-1.744 0-3.28-1.479-3.28-3.329zm10.495 8.667c3.28-1.268 7.304-2.009 10.741-2.009 5.98 0 9.79 2.272 9.79 8.876v15.058h-5.186v-14.582c0-3.381-2.115-4.597-5.027-4.597-1.853 0-3.702.264-5.08.687v18.492h-5.238zM81.21 95h5.237v13.157c1.11-.582 3.28-1.164 5.342-1.164 6.775 0 11.852 4.332 11.852 11.835 0 7.555-5.024 12.626-13.701 12.626a26.056 26.056 0 01-8.73-1.531zm5.237 31.49c1.005.316 2.328.473 3.65.473 4.815 0 8.255-2.64 8.255-8.031 0-4.543-3.227-7.237-7.195-7.237-2.063 0-3.652.529-4.712 1.11v13.685zm32.326-11.256c0-2.536-1.905-3.696-4.498-3.696-2.698 0-4.814.791-6.771 1.901v-4.545c2.063-1.16 4.707-1.901 7.619-1.901 5.13 0 8.781 2.113 8.781 7.977v15.481c-2.222.58-5.394.952-8.04.952-6.085 0-10.53-1.85-10.53-7.133 0-4.755 4.072-7.079 10.845-7.079h2.593v-1.957zm0 5.442h-2.222c-3.652 0-6.034 1.058-6.034 3.435 0 2.43 2.225 3.381 5.399 3.381.794 0 1.905-.106 2.857-.265zm8.94 3.911c2.171 1.637 4.762 2.64 7.143 2.64 2.329 0 3.863-.792 3.863-2.64 0-1.904-1.375-2.59-4.39-3.382-4.869-1.109-6.933-3.063-6.933-7.132 0-4.755 3.599-7.08 8.36-7.08 2.645 0 4.761.582 6.718 1.796v4.808c-2.063-1.478-4.072-2.377-6.559-2.377-2.275 0-3.492 1.109-3.492 2.642 0 1.531 1.004 2.324 3.704 3.062 5.345 1.163 7.672 3.173 7.672 7.399 0 4.913-3.757 7.131-8.836 7.131-2.752 0-5.503-.737-7.248-1.901v-4.966zm23.256-4.174v.106c.317 4.173 3.914 6.444 7.564 6.444 3.228 0 5.557-.739 7.884-2.271v4.598c-2.116 1.478-5.238 2.164-8.252 2.164-7.302 0-12.276-4.648-12.276-12.044 0-7.449 4.866-12.415 11.323-12.415 6.824 0 10.052 4.384 10.052 10.775v2.645h-16.295zm11.373-3.382c-.104-3.647-1.902-5.652-5.289-5.652-3.017 0-5.238 2.114-5.926 5.653h11.217z" fill="#979797"/>
  </g>
  <g clip-path="url(#c)" fill="#979797">
    <path d="M59.332 30.817c0 6.545-5.12 11.369-11.405 11.369s-11.405-4.824-11.405-11.37c0-6.591 5.12-11.369 11.405-11.369s11.405 4.778 11.405 11.37zm-4.993 0c0-4.091-2.968-6.89-6.412-6.89-3.445 0-6.413 2.799-6.413 6.89 0 4.049 2.968 6.889 6.413 6.889 3.444 0 6.412-2.845 6.412-6.89zM83.936 30.817c0 6.545-5.12 11.369-11.405 11.369s-11.405-4.824-11.405-11.37c0-6.586 5.12-11.369 11.405-11.369s11.405 4.778 11.405 11.37zm-4.993 0c0-4.091-2.968-6.89-6.412-6.89-3.445 0-6.413 2.799-6.413 6.89 0 4.049 2.968 6.889 6.413 6.889 3.444 0 6.412-2.845 6.412-6.89zM107.515 20.134v20.411c0 8.396-4.952 11.826-10.806 11.826-5.51 0-8.826-3.686-10.077-6.7l4.347-1.81c.774 1.851 2.67 4.035 5.725 4.035 3.747 0 6.069-2.312 6.069-6.664v-1.635h-.174c-1.117 1.379-3.27 2.583-5.987 2.583-5.684 0-10.892-4.951-10.892-11.322 0-6.418 5.208-11.41 10.892-11.41 2.712 0 4.865 1.204 5.987 2.542h.174v-1.85h4.742zm-4.388 10.723c0-4.003-2.67-6.93-6.069-6.93-3.445 0-6.33 2.927-6.33 6.93 0 3.963 2.886 6.849 6.33 6.849 3.399 0 6.069-2.886 6.069-6.848zM115.332 8.17v33.318h-4.87V8.17zM134.308 34.558l3.875 2.584c-1.251 1.85-4.265 5.038-9.473 5.038-6.458 0-11.282-4.992-11.282-11.369 0-6.76 4.865-11.37 10.724-11.37 5.899 0 8.785 4.696 9.728 7.234l.518 1.291-15.198 6.295c1.164 2.28 2.973 3.444 5.51 3.444 2.543 0 4.306-1.25 5.598-3.147zm-11.928-4.09l10.159-4.219c-.558-1.42-2.24-2.41-4.218-2.41-2.538 0-6.069 2.24-5.941 6.629zM18.09 27.859v-4.824h16.253c.16.841.241 1.835.241 2.912 0 3.619-.99 8.094-4.177 11.282-3.102 3.23-7.064 4.951-12.313 4.951-9.729 0-17.91-7.924-17.91-17.653S8.366 6.874 18.095 6.874c5.382 0 9.216 2.111 12.097 4.864l-3.403 3.404c-2.066-1.938-4.865-3.445-8.699-3.445-7.104 0-12.66 5.726-12.66 12.83s5.556 12.83 12.66 12.83c4.608 0 7.233-1.85 8.914-3.532 1.363-1.363 2.26-3.311 2.614-5.971z"/>
  </g>
  <g clip-path="url(#d)" fill="#979797">
    <path d="M276.067 120.464l-1.234 3.496h-.102a24.862 24.862 0 00-1.2-3.427l-6.614-16.622h-6.478v26.492h4.284v-16.348c0-1.028 0-2.193-.034-3.633-.034-.719-.103-1.268-.137-1.679h.103c.205 1.028.445 1.782.617 2.262l7.951 19.329h3.016l7.882-19.5c.171-.446.343-1.337.514-2.091h.103a252.336 252.336 0 00-.206 4.764V130.3h4.558v-26.458h-6.237zm17.342-9.15h4.455V130.3h-4.455zm2.262-8.02c-.754 0-1.371.274-1.885.754s-.789 1.097-.789 1.851c0 .719.275 1.336.789 1.816s1.131.72 1.885.72 1.405-.274 1.885-.72c.514-.48.788-1.097.788-1.816 0-.72-.274-1.337-.788-1.851-.446-.48-1.097-.754-1.885-.754zm17.992 7.848a12.447 12.447 0 00-2.502-.274c-2.022 0-3.872.446-5.414 1.337-1.543.891-2.776 2.124-3.565 3.667-.822 1.576-1.234 3.393-1.234 5.483 0 1.817.412 3.427 1.2 4.901.788 1.439 1.885 2.605 3.359 3.393 1.405.788 3.05 1.199 4.9 1.199 2.125 0 3.942-.445 5.381-1.268l.034-.034v-4.113l-.171.138c-.651.479-1.405.891-2.159 1.131-.788.274-1.508.411-2.125.411-1.782 0-3.187-.514-4.181-1.645-1.028-1.097-1.542-2.605-1.542-4.49 0-1.953.514-3.496 1.576-4.627 1.063-1.131 2.468-1.713 4.181-1.713 1.44 0 2.913.48 4.25 1.439l.171.137v-4.352l-.034-.034c-.582-.24-1.234-.514-2.125-.686zm14.703-.137a4.704 4.704 0 00-3.016 1.062c-.754.617-1.268 1.508-1.714 2.571h-.034v-3.324h-4.455V130.3h4.455v-9.699c0-1.645.343-3.016 1.097-4.01.754-1.028 1.713-1.542 2.879-1.542.411 0 .822.103 1.336.171.48.138.823.275 1.063.446l.171.137v-4.455l-.103-.034c-.308-.206-.925-.309-1.679-.309zm12.132-.103c-3.119 0-5.621.926-7.368 2.742-1.783 1.816-2.639 4.318-2.639 7.471 0 2.948.891 5.347 2.604 7.094 1.714 1.714 4.044 2.605 6.958 2.605 3.05 0 5.483-.925 7.231-2.776 1.782-1.851 2.639-4.318 2.639-7.368 0-3.016-.823-5.415-2.502-7.163-1.611-1.748-3.976-2.605-6.923-2.605zm3.564 14.6c-.822 1.062-2.125 1.577-3.735 1.577-1.611 0-2.913-.515-3.839-1.646-.925-1.062-1.371-2.604-1.371-4.558 0-2.022.48-3.564 1.371-4.661.926-1.096 2.194-1.645 3.804-1.645 1.577 0 2.811.514 3.702 1.577.891 1.062 1.371 2.604 1.371 4.627-.069 2.056-.446 3.667-1.303 4.729zm15.8-6.306c-1.406-.583-2.297-1.028-2.708-1.405-.343-.343-.514-.823-.514-1.44 0-.514.206-1.028.72-1.37.514-.343 1.096-.514 1.953-.514.754 0 1.542.137 2.296.342.754.206 1.44.514 1.988.926l.172.137v-4.181l-.103-.035c-.514-.205-1.2-.411-2.022-.582a13.764 13.764 0 00-2.194-.206c-2.125 0-3.872.514-5.243 1.645-1.371 1.062-2.022 2.502-2.022 4.181 0 .891.137 1.679.445 2.331a5.2 5.2 0 001.371 1.782c.617.48 1.508 1.028 2.742 1.542 1.028.446 1.816.788 2.296 1.062.48.275.788.583 1.028.823.172.274.274.617.274 1.062 0 1.268-.959 1.885-2.913 1.885-.754 0-1.542-.137-2.467-.445a9.549 9.549 0 01-2.502-1.268l-.171-.137v4.352l.102.034c.651.309 1.44.515 2.399.754.96.172 1.817.309 2.571.309 2.296 0 4.181-.514 5.517-1.645 1.371-1.097 2.091-2.502 2.091-4.318 0-1.268-.343-2.399-1.097-3.256-.994-.823-2.227-1.68-4.009-2.365zm16.861-8.294c-3.118 0-5.62.926-7.368 2.742s-2.639 4.318-2.639 7.471c0 2.948.891 5.347 2.605 7.094 1.713 1.714 4.044 2.605 6.957 2.605 3.05 0 5.483-.925 7.231-2.776 1.782-1.851 2.639-4.318 2.639-7.368 0-3.016-.823-5.415-2.502-7.163-1.611-1.748-3.975-2.605-6.923-2.605zm3.53 14.6c-.822 1.062-2.125 1.577-3.735 1.577-1.645 0-2.913-.515-3.839-1.646-.925-1.062-1.371-2.604-1.371-4.558 0-2.022.48-3.564 1.371-4.661.926-1.096 2.194-1.645 3.804-1.645 1.543 0 2.811.514 3.702 1.577.891 1.062 1.371 2.604 1.371 4.627 0 2.056-.446 3.667-1.303 4.729zm29.714-10.521v-3.667h-4.49v-5.621l-.137.034-4.25 1.268-.102.035v4.284h-6.718v-2.4c0-1.096.275-1.953.754-2.501.48-.549 1.2-.823 2.091-.823.617 0 1.268.137 1.988.446l.171.102v-3.872l-.103-.034c-.617-.206-1.439-.343-2.502-.343a8.03 8.03 0 00-3.564.822 5.943 5.943 0 00-2.433 2.434c-.583 1.028-.891 2.193-.891 3.53v2.639h-3.119v3.632h3.119V130.3h4.489v-15.319h6.718v9.767c0 4.01 1.885 6.032 5.654 6.032.617 0 1.268-.103 1.885-.206.652-.137 1.131-.308 1.406-.445l.034-.035v-3.667l-.172.137a2.885 2.885 0 01-.925.412 3.13 3.13 0 01-.891.137c-.891 0-1.508-.206-1.953-.72-.412-.48-.617-1.268-.617-2.433v-8.979zM203 95h21.009v21.009H203zM226.202 95h21.009v21.009h-21.009zM203 118.202h21.009v21.008H203zM226.202 118.202h21.009v21.008h-21.009z"/>
  </g>
  <g clip-path="url(#e)" stroke="#979797" stroke-width="7.2">
    <path d="M445.5 134.1V108a5.395 5.395 0 0110.48-1.811l6.04 21.622A5.395 5.395 0 00472.5 126V99.9M477.45 136.35l9.77-30.161c.743-2.091 2.737-3.589 5.08-3.589s4.337 1.498 5.08 3.589l9.77 30.161"/>
    <path d="M534.6 104.4h-17.555a6.753 6.753 0 10.005 13.504h9a6.749 6.749 0 110 13.496l-18.45-.007" stroke-miterlimit="0"/>
    <path d="M537.323 136.35l9.787-30.161a5.402 5.402 0 0110.177 0l9.788 30.161"/>
  </g>
</svg>
