<svg fill="none" height="56" width="1081" xmlns="http://www.w3.org/2000/svg">
  <clipPath id="a">
    <path d="M203.423 0h179.789v56H203.423z"/>
  </clipPath>
  <clipPath id="b">
    <path d="M642.371 5.158h167.263v37.58H642.371z"/>
  </clipPath>
  <clipPath id="c">
    <path d="M0 6.633h139.423V53.79H0z"/>
  </clipPath>
  <clipPath id="d">
    <path d="M873.634 5.158h207.001v44.21H873.634z"/>
  </clipPath>
  <g clip-path="url(#a)">
    <path d="M298.176 14.07c0 2.018-1.629 3.644-3.651 3.644s-3.65-1.626-3.65-3.644 1.572-3.644 3.65-3.644c2.079.057 3.651 1.682 3.651 3.644zm-15.052 7.343v.897s-1.742-2.242-5.449-2.242c-6.122 0-10.896 4.653-10.896 11.1 0 6.39 4.718 11.098 10.896 11.098 3.764 0 5.449-2.298 5.449-2.298v.953c0 .448.337.785.786.785h4.549V20.629h-4.549a.802.802 0 00-.786.784zm0 13.51c-.843 1.233-2.528 2.298-4.55 2.298-3.595 0-6.347-2.242-6.347-6.054s2.752-6.054 6.347-6.054c1.966 0 3.763 1.121 4.55 2.298zm8.705-14.294h5.392v21.077h-5.392zm80.543-.56c-3.707 0-5.448 2.241-5.448 2.241V10.482h-5.392v31.224h4.55a.802.802 0 00.786-.785v-.953s1.741 2.298 5.448 2.298c6.122 0 10.897-4.708 10.897-11.099s-4.775-11.099-10.841-11.099zm-.898 17.096c-2.078 0-3.707-1.065-4.55-2.298v-7.512c.843-1.12 2.64-2.298 4.55-2.298 3.594 0 6.347 2.242 6.347 6.054s-2.753 6.054-6.347 6.054zm-12.75-7.96v12.557h-5.392v-11.94c0-3.476-1.123-4.877-4.156-4.877-1.629 0-3.314.84-4.381 2.074v14.687h-5.392V20.629h4.268c.45 0 .787.392.787.784v.897c1.572-1.625 3.65-2.242 5.729-2.242 2.359 0 4.324.673 5.897 2.018 1.91 1.57 2.64 3.588 2.64 7.12zm-32.408-9.137c-3.707 0-5.448 2.242-5.448 2.242V10.482h-5.392v31.224h4.549a.802.802 0 00.786-.785v-.953s1.742 2.298 5.449 2.298c6.122 0 10.896-4.708 10.896-11.099.056-6.39-4.718-11.099-10.84-11.099zm-.899 17.097c-2.078 0-3.707-1.065-4.549-2.298v-7.512c.842-1.12 2.639-2.298 4.549-2.298 3.595 0 6.347 2.242 6.347 6.054s-2.752 6.054-6.347 6.054zm-14.603-17.097c1.629 0 2.471.28 2.471.28v4.99s-4.493-1.514-7.302 1.681v14.743h-5.392V20.629h4.55c.449 0 .786.392.786.784v.897c1.011-1.177 3.202-2.242 4.887-2.242zM254.816 39.8c-.281-.673-.562-1.402-.843-2.018-.449-1.01-.899-1.962-1.292-2.86l-.056-.055A584.016 584.016 0 00240.212 9.53l-.168-.337c-.45-.84-.899-1.738-1.348-2.634-.562-1.01-1.124-2.075-2.022-3.084C234.876 1.233 232.293 0 229.541 0c-2.809 0-5.336 1.233-7.19 3.363-.842 1.01-1.46 2.074-2.022 3.083-.449.897-.898 1.794-1.348 2.635l-.168.336c-4.325 8.409-8.538 16.93-12.413 25.338l-.056.112c-.393.897-.843 1.85-1.292 2.859-.281.616-.562 1.289-.843 2.018-.73 2.074-.954 4.036-.674 6.054a11.919 11.919 0 007.302 9.305c1.46.617 2.977.897 4.55.897.449 0 1.011-.056 1.46-.112 1.853-.224 3.763-.841 5.617-1.906 2.302-1.29 4.493-3.14 6.964-5.83 2.472 2.69 4.718 4.54 6.965 5.83 1.853 1.065 3.763 1.682 5.617 1.906a12.81 12.81 0 001.46.112c1.573 0 3.145-.28 4.549-.897 3.932-1.57 6.684-5.157 7.302-9.305.449-1.962.225-3.924-.505-5.998zm-25.332 2.915c-3.033-3.812-4.998-7.4-5.672-10.427-.281-1.289-.337-2.41-.169-3.42a5.42 5.42 0 01.899-2.353c1.067-1.514 2.864-2.467 4.942-2.467 2.079 0 3.932.897 4.943 2.466.449.673.786 1.458.899 2.355.168 1.009.112 2.186-.169 3.42-.674 2.97-2.64 6.558-5.673 10.426zm22.411 2.634c-.393 2.915-2.359 5.438-5.111 6.559-1.348.56-2.809.729-4.269.56-1.404-.168-2.808-.616-4.269-1.457-2.022-1.121-4.044-2.859-6.403-5.437 3.707-4.541 5.954-8.69 6.797-12.389.393-1.738.449-3.307.28-4.765-.224-1.401-.73-2.69-1.516-3.811-1.741-2.523-4.662-3.98-7.92-3.98-3.257 0-6.178 1.513-7.919 3.98-.786 1.12-1.292 2.41-1.517 3.811a11.634 11.634 0 00.281 4.765c.843 3.7 3.146 7.904 6.796 12.445-2.302 2.578-4.381 4.316-6.403 5.437-1.46.84-2.864 1.29-4.268 1.457a9.001 9.001 0 01-4.269-.56c-2.752-1.121-4.718-3.644-5.111-6.559-.169-1.401-.056-2.802.505-4.372.169-.56.45-1.121.731-1.794.393-.897.842-1.85 1.291-2.803l.057-.112c3.875-8.352 8.031-16.872 12.356-25.169l.169-.336c.449-.841.898-1.738 1.348-2.579.449-.897.955-1.737 1.572-2.466 1.18-1.346 2.753-2.074 4.494-2.074s3.314.728 4.493 2.074c.618.729 1.123 1.57 1.573 2.466.449.841.898 1.738 1.348 2.579l.168.336A743.202 743.202 0 01249.48 36.38v.056c.449.897.842 1.906 1.292 2.803.28.673.561 1.234.73 1.794.449 1.458.618 2.859.393 4.316z" fill="#979797"/>
  </g>
  <g fill="#979797">
    <path d="M473.777 22.597H463.11a.498.498 0 00-.499.495v5.183c0 .273.224.496.499.496h4.161v6.439s-.934.316-3.518.316c-3.047 0-7.305-1.106-7.305-10.41s4.434-10.529 8.596-10.529c3.602 0 5.154.63 6.142.934.31.095.597-.212.597-.486l1.19-5.007a.46.46 0 00-.19-.387c-.401-.284-2.848-1.645-9.03-1.645-7.121 0-14.425 3.01-14.425 17.483 0 14.474 8.363 16.63 15.41 16.63 5.835 0 9.375-2.478 9.375-2.478.146-.08.162-.282.162-.375V23.092a.497.497 0 00-.498-.495M528.751 9.73a.495.495 0 00-.495-.498h-6.007a.498.498 0 00-.497.499l.001 11.534h-9.362V9.73a.496.496 0 00-.495-.499h-6.006a.497.497 0 00-.496.499v31.231c0 .276.222.5.496.5h6.006a.497.497 0 00.495-.5V27.603h9.362l-.016 13.359a.5.5 0 00.497.5h6.021a.498.498 0 00.496-.5zM485.111 13.83a3.878 3.878 0 00-3.873-3.887 3.879 3.879 0 00-3.873 3.886 3.882 3.882 0 003.873 3.888 3.881 3.881 0 003.873-3.888zM484.681 34.374V19.957a.498.498 0 00-.497-.497h-5.987c-.274 0-.52.281-.52.555V40.67c0 .607.38.787.873.787h5.394c.592 0 .737-.289.737-.797v-6.286M551.577 19.507h-5.96a.498.498 0 00-.496.5V35.32s-1.514 1.1-3.663 1.1-2.72-.968-2.72-3.06V20.007c0-.275-.222-.5-.495-.5h-6.05a.499.499 0 00-.496.5v14.366c0 6.21 3.483 7.73 8.276 7.73 3.931 0 7.101-2.158 7.101-2.158s.151 1.137.219 1.272.246.27.438.27l3.849-.016a.499.499 0 00.496-.499l-.002-20.965c0-.275-.222-.5-.497-.5M565.516 36.402c-2.067-.063-3.469-.995-3.469-.995v-9.89s1.383-.843 3.08-.993c2.147-.191 4.215.453 4.215 5.54 0 5.366-.934 6.424-3.826 6.338zm2.351-17.597c-3.385 0-5.688 1.501-5.688 1.501V9.731a.497.497 0 00-.495-.499h-6.024a.497.497 0 00-.496.499v31.231a.5.5 0 00.497.5h4.179c.188 0 .331-.097.436-.265.104-.168.254-1.44.254-1.44s2.463 2.319 7.125 2.319c5.474 0 8.613-2.76 8.613-12.386 0-9.627-5.013-10.885-8.401-10.885M501.944 19.456h-4.506l-.007-5.914c0-.224-.116-.336-.376-.336h-6.14c-.238 0-.367.104-.367.332v6.112s-3.076.738-3.284.798a.495.495 0 00-.36.476v3.841c0 .276.222.499.496.499h3.148v9.24c0 6.863 4.845 7.537 8.114 7.537 1.494 0 3.281-.476 3.576-.585.178-.065.282-.248.282-.447l.005-4.226c0-.275-.235-.498-.498-.498s-.934.106-1.626.106c-2.213 0-2.963-1.023-2.963-2.346v-8.781h4.506a.498.498 0 00.497-.499v-4.81a.497.497 0 00-.497-.498"/>
  </g>
  <g clip-path="url(#b)">
    <path d="M655.388 37.017a9.913 9.913 0 003.649-.682c.01.022 2.333 3.627 2.367 3.652-2.104 1.129-4.302 1.626-6.705 1.626-7.143 0-12.328-4.7-12.328-12.204 0-7.557 5.45-12.258 12.328-12.258 2.449 0 4.38.53 6.324 1.569-.214.356-2.216 3.75-2.223 3.764a9.652 9.652 0 00-3.625-.683c-4.234 0-7.513 2.695-7.513 7.608 0 4.649 3.174 7.608 7.726 7.608zm18.017-19.866c7.037 0 12.117 4.968 12.117 12.258 0 7.238-5.08 12.204-12.117 12.204-6.983 0-12.063-4.965-12.063-12.204 0-7.29 5.08-12.258 12.063-12.258zm0 4.492c-3.914 0-6.773 3.012-6.773 7.766 0 4.703 2.858 7.714 6.774 7.714 4.022 0 6.826-3.01 6.826-7.714 0-4.754-2.804-7.766-6.827-7.766zm15.451 19.442V17.68h5.237v23.406zm-.689-30.592c0-1.795 1.536-3.22 3.281-3.22 1.747 0 3.28 1.425 3.28 3.221 0 1.85-1.533 3.33-3.28 3.33-1.745 0-3.281-1.48-3.281-3.33zm10.496 8.667c3.28-1.268 7.304-2.009 10.741-2.009 5.98 0 9.789 2.272 9.789 8.876v15.058h-5.185V26.503c0-3.38-2.116-4.597-5.028-4.597-1.852 0-3.702.264-5.079.687v18.492h-5.238zM723.58 5.158h5.236v13.157c1.111-.582 3.28-1.164 5.343-1.164 6.774 0 11.852 4.332 11.852 11.835 0 7.555-5.025 12.627-13.702 12.627a26.083 26.083 0 01-8.729-1.531zm5.236 31.49c1.005.316 2.328.473 3.651.473 4.814 0 8.254-2.64 8.254-8.03 0-4.543-3.226-7.238-7.195-7.238-2.063 0-3.652.529-4.711 1.11v13.685zm32.327-11.256c0-2.536-1.906-3.696-4.498-3.696-2.699 0-4.815.792-6.772 1.9v-4.543c2.063-1.161 4.707-1.902 7.619-1.902 5.131 0 8.782 2.113 8.782 7.977v15.481c-2.222.58-5.395.952-8.04.952-6.086 0-10.531-1.85-10.531-7.133 0-4.754 4.073-7.079 10.846-7.079h2.592v-1.957zm0 5.442h-2.222c-3.652 0-6.034 1.058-6.034 3.435 0 2.43 2.225 3.381 5.398 3.381.795 0 1.906-.106 2.858-.264zm8.94 3.911c2.17 1.637 4.761 2.64 7.142 2.64 2.329 0 3.864-.791 3.864-2.64 0-1.904-1.376-2.59-4.391-3.382-4.869-1.109-6.933-3.063-6.933-7.131 0-4.756 3.599-7.08 8.361-7.08 2.645 0 4.761.581 6.718 1.795v4.809c-2.063-1.479-4.073-2.378-6.56-2.378-2.274 0-3.491 1.11-3.491 2.642 0 1.531 1.003 2.324 3.703 3.062 5.346 1.164 7.672 3.173 7.672 7.399 0 4.913-3.756 7.132-8.836 7.132-2.751 0-5.503-.738-7.248-1.902v-4.966zm23.255-4.174v.106c.318 4.173 3.914 6.444 7.565 6.444 3.228 0 5.557-.739 7.883-2.271v4.598c-2.116 1.478-5.238 2.165-8.251 2.165-7.303 0-12.276-4.65-12.276-12.045 0-7.45 4.866-12.415 11.322-12.415 6.825 0 10.053 4.384 10.053 10.775v2.645h-16.296zm11.374-3.382c-.105-3.646-1.903-5.652-5.29-5.652-3.016 0-5.238 2.114-5.925 5.654h11.216z" fill="#979797"/>
  </g>
  <g clip-path="url(#c)" fill="#979797">
    <path d="M59.332 30.816c0 6.546-5.121 11.37-11.405 11.37s-11.405-4.824-11.405-11.37c0-6.591 5.12-11.369 11.405-11.369s11.405 4.778 11.405 11.37zm-4.993 0c0-4.09-2.968-6.889-6.412-6.889s-6.413 2.799-6.413 6.89c0 4.049 2.968 6.889 6.412 6.889s6.413-2.845 6.413-6.89zM83.936 30.816c0 6.546-5.12 11.37-11.405 11.37s-11.405-4.824-11.405-11.37c0-6.586 5.12-11.369 11.405-11.369s11.405 4.778 11.405 11.37zm-4.993 0c0-4.09-2.967-6.889-6.412-6.889s-6.412 2.799-6.412 6.89c0 4.049 2.967 6.889 6.412 6.889s6.412-2.845 6.412-6.89zM107.515 20.134v20.411c0 8.396-4.952 11.826-10.805 11.826-5.51 0-8.827-3.686-10.078-6.7l4.347-1.81c.774 1.851 2.67 4.035 5.725 4.035 3.747 0 6.069-2.312 6.069-6.664v-1.635h-.174c-1.117 1.379-3.27 2.583-5.987 2.583-5.684 0-10.892-4.951-10.892-11.323 0-6.417 5.208-11.41 10.892-11.41 2.712 0 4.865 1.205 5.987 2.543h.174v-1.85h4.742zm-4.388 10.723c0-4.003-2.67-6.93-6.069-6.93-3.445 0-6.33 2.927-6.33 6.93 0 3.963 2.886 6.849 6.33 6.849 3.399 0 6.069-2.886 6.069-6.849zM115.332 8.17V41.49h-4.87V8.171zM134.308 34.559l3.875 2.583c-1.251 1.85-4.265 5.039-9.473 5.039-6.458 0-11.282-4.993-11.282-11.37 0-6.76 4.865-11.369 10.724-11.369 5.899 0 8.785 4.696 9.728 7.233l.518 1.292L123.2 34.26c1.164 2.281 2.973 3.445 5.51 3.445 2.543 0 4.306-1.25 5.598-3.147zm-11.928-4.09l10.159-4.22c-.558-1.42-2.24-2.409-4.218-2.409-2.538 0-6.069 2.24-5.941 6.628zM18.09 27.86v-4.824h16.253c.16.84.241 1.835.241 2.911 0 3.62-.99 8.094-4.177 11.282-3.101 3.23-7.064 4.952-12.313 4.952-9.729 0-17.91-7.925-17.91-17.653S8.366 6.873 18.095 6.873c5.383 0 9.217 2.112 12.097 4.865l-3.403 3.403c-2.066-1.937-4.865-3.444-8.699-3.444-7.104 0-12.66 5.725-12.66 12.83 0 7.104 5.556 12.83 12.66 12.83 4.608 0 7.233-1.85 8.914-3.532 1.364-1.364 2.26-3.311 2.614-5.972z"/>
  </g>
  <g clip-path="url(#d)" fill="#979797">
    <path d="M946.701 30.622l-1.234 3.496h-.102a24.867 24.867 0 00-1.2-3.427l-6.614-16.622h-6.478V40.56h4.284V24.213c0-1.028 0-2.193-.034-3.632-.034-.72-.103-1.268-.137-1.68h.103c.205 1.028.445 1.782.617 2.262l7.951 19.33h3.015l7.883-19.501c.171-.446.343-1.337.514-2.09h.103a252.365 252.365 0 00-.206 4.763v16.793h4.558V14h-6.237zm17.342-9.15h4.455v18.986h-4.455zm2.262-8.02c-.754 0-1.371.274-1.885.754s-.789 1.097-.789 1.85c0 .72.275 1.337.789 1.817s1.131.72 1.885.72 1.405-.274 1.884-.72c.515-.48.789-1.097.789-1.816s-.274-1.337-.789-1.851c-.445-.48-1.096-.754-1.884-.754zm17.992 7.848a12.425 12.425 0 00-2.502-.274c-2.022 0-3.872.446-5.415 1.337-1.542.89-2.776 2.125-3.564 3.667-.822 1.576-1.234 3.393-1.234 5.483 0 1.817.412 3.427 1.2 4.901.788 1.44 1.885 2.605 3.359 3.393 1.405.788 3.05 1.2 4.9 1.2 2.125 0 3.942-.446 5.381-1.269l.034-.034v-4.112l-.171.137c-.651.48-1.405.89-2.159 1.13-.788.275-1.508.412-2.125.412-1.782 0-3.187-.514-4.181-1.645-1.028-1.097-1.542-2.605-1.542-4.49 0-1.953.514-3.495 1.576-4.626 1.063-1.131 2.468-1.714 4.181-1.714 1.44 0 2.913.48 4.25 1.44l.171.137V22.02l-.034-.034c-.583-.24-1.234-.514-2.125-.686zM999 21.163a4.7 4.7 0 00-3.016 1.063c-.754.617-1.268 1.508-1.714 2.57h-.034v-3.324h-4.455v18.986h4.455V30.76c0-1.645.343-3.016 1.097-4.01.754-1.028 1.713-1.542 2.879-1.542.411 0 .822.103 1.336.172.482.137.822.274 1.062.445l.17.137v-4.455l-.1-.034c-.31-.206-.926-.309-1.68-.309zm12.13-.103c-3.12 0-5.62.926-7.37 2.742-1.78 1.817-2.64 4.318-2.64 7.471 0 2.948.9 5.347 2.61 7.095 1.71 1.713 4.04 2.604 6.96 2.604 3.05 0 5.48-.925 7.23-2.776 1.78-1.85 2.64-4.318 2.64-7.368 0-3.016-.83-5.415-2.51-7.163-1.61-1.748-3.97-2.605-6.92-2.605zm3.57 14.6c-.83 1.063-2.13 1.577-3.74 1.577s-2.91-.514-3.84-1.645c-.92-1.063-1.37-2.605-1.37-4.559 0-2.022.48-3.564 1.37-4.66.93-1.097 2.2-1.646 3.81-1.646 1.57 0 2.81.515 3.7 1.577s1.37 2.605 1.37 4.627c-.07 2.056-.45 3.667-1.3 4.73zm15.8-6.306c-1.41-.583-2.3-1.028-2.71-1.405-.34-.343-.52-.823-.52-1.44 0-.514.21-1.028.72-1.37.52-.343 1.1-.514 1.96-.514.75 0 1.54.137 2.29.342.76.206 1.44.514 1.99.926l.17.137v-4.181l-.1-.035c-.51-.205-1.2-.41-2.02-.582-.82-.137-1.58-.206-2.2-.206-2.12 0-3.87.514-5.24 1.645-1.37 1.063-2.02 2.502-2.02 4.181 0 .891.14 1.68.44 2.33.31.652.76 1.269 1.38 1.783.61.48 1.5 1.028 2.74 1.542 1.02.446 1.81.788 2.29 1.063s.79.582 1.03.822c.17.274.28.617.28 1.062 0 1.268-.96 1.885-2.92 1.885-.75 0-1.54-.137-2.47-.445a9.612 9.612 0 01-2.5-1.268l-.17-.137v4.352l.1.034c.66.309 1.44.515 2.4.755.96.17 1.82.308 2.57.308 2.3 0 4.18-.514 5.52-1.645 1.37-1.097 2.09-2.502 2.09-4.318 0-1.268-.34-2.4-1.09-3.256-1-.823-2.23-1.68-4.01-2.365zm16.86-8.294c-3.12 0-5.62.926-7.37 2.742s-2.64 4.318-2.64 7.471c0 2.948.89 5.347 2.6 7.095 1.72 1.713 4.05 2.604 6.96 2.604 3.05 0 5.49-.925 7.23-2.776 1.79-1.85 2.64-4.318 2.64-7.368 0-3.016-.82-5.415-2.5-7.163-1.61-1.748-3.98-2.605-6.92-2.605zm3.53 14.6c-.83 1.063-2.13 1.577-3.74 1.577-1.64 0-2.91-.514-3.84-1.645-.92-1.063-1.37-2.605-1.37-4.559 0-2.022.48-3.564 1.37-4.66.93-1.097 2.2-1.646 3.81-1.646 1.54 0 2.81.515 3.7 1.577s1.37 2.605 1.37 4.627c0 2.056-.45 3.667-1.3 4.73zm29.71-10.521v-3.667h-4.49V15.85l-.14.034-4.25 1.268-.1.035v4.284h-6.72v-2.4c0-1.096.28-1.953.76-2.501.48-.549 1.2-.823 2.09-.823.62 0 1.27.137 1.99.446l.17.103v-3.873l-.1-.034c-.62-.206-1.44-.343-2.51-.343-1.33 0-2.5.308-3.56.822a5.936 5.936 0 00-2.43 2.434c-.59 1.028-.9 2.193-.9 3.53v2.639h-3.11v3.632h3.11v15.354h4.49v-15.32h6.72v9.768c0 4.01 1.89 6.032 5.66 6.032.61 0 1.26-.103 1.88-.206.65-.137 1.13-.308 1.41-.445l.03-.035v-3.667l-.17.137c-.27.172-.51.309-.93.412-.34.103-.65.137-.89.137-.89 0-1.51-.206-1.95-.72-.41-.48-.62-1.268-.62-2.433v-8.98zM873.634 5.158h21.008v21.009h-21.008zM896.836 5.158h21.008v21.009h-21.008zM873.634 28.36h21.008V49.37h-21.008zM896.836 28.36h21.008V49.37h-21.008z"/>
  </g>
</svg>
