<svg width="572" height="140" viewBox="0 0 572 140" fill="none" xmlns="http://www.w3.org/2000/svg">
<g clip-path="url(#clip0)">
<path d="M297.758 14.0701C297.758 16.0881 296.129 17.7137 294.107 17.7137C292.085 17.7137 290.456 16.0881 290.456 14.0701C290.456 12.0521 292.029 10.4264 294.107 10.4264C296.185 10.4825 297.758 12.1081 297.758 14.0701ZM282.705 21.4134C282.705 21.7497 282.705 22.3103 282.705 22.3103C282.705 22.3103 280.964 20.0681 277.257 20.0681C271.135 20.0681 266.361 24.7207 266.361 31.1672C266.361 37.5576 271.079 42.2663 277.257 42.2663C281.02 42.2663 282.705 39.968 282.705 39.968V40.9209C282.705 41.3694 283.042 41.7057 283.492 41.7057H288.041V20.6286C288.041 20.6286 283.885 20.6286 283.492 20.6286C283.042 20.6286 282.705 21.021 282.705 21.4134ZM282.705 34.9229C281.863 36.1562 280.178 37.2212 278.156 37.2212C274.561 37.2212 271.809 34.979 271.809 31.1672C271.809 27.3554 274.561 25.1131 278.156 25.1131C280.122 25.1131 281.919 26.2342 282.705 27.4114V34.9229ZM291.411 20.6286H296.803V41.7057H291.411V20.6286ZM371.954 20.0681C368.247 20.0681 366.506 22.3103 366.506 22.3103V10.4825H361.114V41.7057C361.114 41.7057 365.27 41.7057 365.663 41.7057C366.113 41.7057 366.45 41.3133 366.45 40.9209V39.968C366.45 39.968 368.191 42.2663 371.898 42.2663C378.02 42.2663 382.794 37.5576 382.794 31.1672C382.794 24.7768 378.02 20.0681 371.954 20.0681ZM371.055 37.1652C368.977 37.1652 367.348 36.1001 366.506 34.8669V27.3554C367.348 26.2342 369.146 25.0571 371.055 25.0571C374.65 25.0571 377.402 27.2993 377.402 31.1111C377.402 34.9229 374.65 37.1652 371.055 37.1652ZM358.306 29.2052V41.7618H352.914V29.8218C352.914 26.3463 351.79 24.9449 348.757 24.9449C347.128 24.9449 345.443 25.7858 344.376 27.019V41.7057H338.984V20.6286H343.253C343.702 20.6286 344.039 21.021 344.039 21.4134V22.3103C345.612 20.6847 347.69 20.0681 349.768 20.0681C352.127 20.0681 354.093 20.7407 355.666 22.0861C357.575 23.6557 358.306 25.6737 358.306 29.2052ZM325.897 20.0681C322.19 20.0681 320.449 22.3103 320.449 22.3103V10.4825H315.057V41.7057C315.057 41.7057 319.214 41.7057 319.607 41.7057C320.056 41.7057 320.393 41.3133 320.393 40.9209V39.968C320.393 39.968 322.134 42.2663 325.841 42.2663C331.963 42.2663 336.738 37.5576 336.738 31.1672C336.794 24.7768 332.02 20.0681 325.897 20.0681ZM324.999 37.1652C322.921 37.1652 321.292 36.1001 320.449 34.8669V27.3554C321.292 26.2342 323.089 25.0571 324.999 25.0571C328.593 25.0571 331.346 27.2993 331.346 31.1111C331.346 34.9229 328.593 37.1652 324.999 37.1652ZM310.395 20.0681C312.024 20.0681 312.867 20.3483 312.867 20.3483V25.3373C312.867 25.3373 308.373 23.8238 305.565 27.019V41.7618H300.173V20.6286C300.173 20.6286 304.329 20.6286 304.723 20.6286C305.172 20.6286 305.509 21.021 305.509 21.4134V22.3103C306.52 21.1331 308.71 20.0681 310.395 20.0681ZM254.397 39.7998C254.116 39.1271 253.836 38.3984 253.555 37.7818C253.105 36.7728 252.656 35.8198 252.263 34.9229L252.207 34.8669C248.331 26.4585 244.175 17.9379 239.794 9.52953L239.625 9.19319C239.176 8.35235 238.727 7.45545 238.277 6.55856C237.716 5.54955 237.154 4.48448 236.255 3.47548C234.458 1.23323 231.874 0 229.122 0C226.314 0 223.786 1.23323 221.933 3.36336C221.09 4.37237 220.473 5.43744 219.911 6.44645C219.462 7.34334 219.012 8.24024 218.563 9.08108L218.394 9.41742C214.07 17.8258 209.857 26.3463 205.982 34.7548L205.925 34.8669C205.532 35.7638 205.083 36.7167 204.634 37.7257C204.353 38.3423 204.072 39.015 203.791 39.7437C203.061 41.8178 202.836 43.7798 203.117 45.7978C203.735 50.002 206.543 53.5335 210.419 55.1031C211.879 55.7197 213.396 56 214.968 56C215.418 56 215.979 55.9439 216.429 55.8879C218.282 55.6637 220.192 55.047 222.045 53.982C224.348 52.6927 226.539 50.8428 229.01 48.1521C231.481 50.8428 233.728 52.6927 235.975 53.982C237.828 55.047 239.738 55.6637 241.591 55.8879C242.041 55.9439 242.602 56 243.052 56C244.624 56 246.197 55.7197 247.601 55.1031C251.533 53.5335 254.285 49.9459 254.903 45.7978C255.352 43.8358 255.127 41.8739 254.397 39.7998ZM229.066 42.7147C226.033 38.9029 224.067 35.3153 223.393 32.2883C223.112 30.999 223.056 29.8779 223.225 28.8689C223.337 27.972 223.674 27.1872 224.123 26.5145C225.191 25.001 226.988 24.048 229.066 24.048C231.144 24.048 232.998 24.9449 234.009 26.5145C234.458 27.1872 234.795 27.972 234.907 28.8689C235.076 29.8779 235.02 31.0551 234.739 32.2883C234.065 35.2593 232.099 38.8468 229.066 42.7147ZM251.477 45.3493C251.083 48.2643 249.118 50.7868 246.365 51.9079C245.017 52.4685 243.557 52.6366 242.097 52.4685C240.693 52.3003 239.288 51.8518 237.828 51.011C235.806 49.8899 233.784 48.1521 231.425 45.5736C235.132 41.033 237.379 36.8849 238.221 33.1852C238.614 31.4474 238.671 29.8779 238.502 28.4204C238.277 27.019 237.772 25.7297 236.986 24.6086C235.244 22.0861 232.324 20.6286 229.066 20.6286C225.808 20.6286 222.888 22.1421 221.147 24.6086C220.36 25.7297 219.855 27.019 219.63 28.4204C219.405 29.8779 219.462 31.5035 219.911 33.1852C220.753 36.8849 223.056 41.0891 226.707 45.6296C224.404 48.2082 222.326 49.9459 220.304 51.0671C218.844 51.9079 217.44 52.3563 216.035 52.5245C214.519 52.6927 213.059 52.4685 211.767 51.964C209.015 50.8428 207.049 48.3203 206.656 45.4054C206.487 44.004 206.599 42.6026 207.161 41.033C207.33 40.4725 207.61 39.9119 207.891 39.2392C208.284 38.3423 208.734 37.3894 209.183 36.4364L209.239 36.3243C213.115 27.972 217.271 19.4515 221.596 11.1552L221.764 10.8188C222.214 9.97798 222.663 9.08108 223.112 8.24024C223.562 7.34334 224.067 6.5025 224.685 5.77377C225.865 4.42843 227.437 3.6997 229.178 3.6997C230.92 3.6997 232.492 4.42843 233.672 5.77377C234.29 6.5025 234.795 7.34334 235.244 8.24024C235.694 9.08108 236.143 9.97798 236.592 10.8188L236.761 11.1552C241.03 19.5075 245.186 28.028 249.061 36.3804V36.4364C249.511 37.3333 249.904 38.3423 250.353 39.2392C250.634 39.9119 250.915 40.4725 251.083 41.033C251.533 42.4905 251.701 43.8919 251.477 45.3493Z" fill="#979797"/>
</g>
<path d="M464.564 25.5966H453.897C453.621 25.5966 453.398 25.8185 453.398 26.0921V31.2746C453.398 31.548 453.621 31.7707 453.897 31.7707H458.058V38.2095C458.058 38.2095 457.123 38.526 454.54 38.526C451.493 38.526 447.235 37.4193 447.235 28.1164C447.235 18.8114 451.668 17.5871 455.83 17.5871C459.433 17.5871 460.985 18.2175 461.973 18.5211C462.283 18.6157 462.57 18.3086 462.57 18.0349L463.76 13.0275C463.76 12.8996 463.717 12.7454 463.57 12.6406C463.169 12.3564 460.722 10.9959 454.54 10.9959C447.419 10.9959 440.115 14.0065 440.115 28.4792C440.115 42.9524 448.478 45.1091 455.525 45.1091C461.36 45.1091 464.9 42.6311 464.9 42.6311C465.046 42.551 465.062 42.3484 465.062 42.2555V26.0921C465.062 25.8185 464.839 25.5966 464.564 25.5966" fill="#979797"/>
<path d="M519.537 12.7302C519.537 12.4544 519.318 12.2319 519.042 12.2319H513.036C512.762 12.2319 512.539 12.4544 512.539 12.7302C512.539 12.7315 512.54 24.2644 512.54 24.2644H503.178V12.7302C503.178 12.4544 502.957 12.2319 502.683 12.2319H496.677C496.403 12.2319 496.18 12.4544 496.18 12.7302V43.9615C496.18 44.237 496.403 44.4613 496.677 44.4613H502.683C502.957 44.4613 503.178 44.237 503.178 43.9615V30.6028H512.54C512.54 30.6028 512.524 43.9605 512.524 43.9615C512.524 44.237 512.747 44.4613 513.021 44.4613H519.042C519.317 44.4613 519.537 44.237 519.537 43.9615V12.7302Z" fill="#979797"/>
<path d="M475.898 16.8285C475.898 14.6794 474.164 12.9427 472.025 12.9427C469.887 12.9427 468.152 14.6794 468.152 16.8285C468.152 18.9753 469.887 20.7167 472.025 20.7167C474.164 20.7167 475.898 18.9753 475.898 16.8285Z" fill="#979797"/>
<path d="M475.468 37.3734C475.468 36.5732 475.468 22.957 475.468 22.957C475.468 22.6832 475.246 22.4595 474.971 22.4595H468.984C468.709 22.4595 468.464 22.741 468.464 23.0146C468.464 23.0146 468.464 40.3622 468.464 43.6691C468.464 44.2762 468.844 44.4566 469.337 44.4566C469.337 44.4566 471.892 44.4566 474.731 44.4566C475.323 44.4566 475.468 44.1679 475.468 43.6594C475.468 42.5523 475.468 38.2153 475.468 37.3734" fill="#979797"/>
<path d="M542.364 22.5064H536.403C536.13 22.5064 535.908 22.7302 535.908 23.0057V38.3194C535.908 38.3194 534.393 39.4202 532.244 39.4202C530.095 39.4202 529.525 38.4513 529.525 36.3602C529.525 34.2666 529.525 23.0057 529.525 23.0057C529.525 22.7302 529.303 22.5064 529.029 22.5064H522.98C522.707 22.5064 522.484 22.7302 522.484 23.0057C522.484 23.0057 522.484 31.1608 522.484 37.3715C522.484 43.5824 525.967 45.1018 530.759 45.1018C534.691 45.1018 537.86 42.9436 537.86 42.9436C537.86 42.9436 538.011 44.0809 538.079 44.2159C538.148 44.3504 538.326 44.4862 538.518 44.4862L542.366 44.4694C542.639 44.4694 542.863 44.2451 542.863 43.9708L542.861 23.0057C542.861 22.7302 542.638 22.5064 542.364 22.5064" fill="#979797"/>
<path d="M556.303 39.4014C554.235 39.3389 552.833 38.4067 552.833 38.4067V28.5164C552.833 28.5164 554.217 27.6738 555.914 27.5232C558.06 27.3321 560.128 27.9764 560.128 33.0642C560.128 38.4293 559.195 39.488 556.303 39.4014ZM558.654 21.8048C555.268 21.8048 552.966 23.3057 552.966 23.3057V12.7302C552.966 12.4544 552.744 12.2319 552.47 12.2319H546.447C546.173 12.2319 545.951 12.4544 545.951 12.7302V43.9615C545.951 44.237 546.173 44.4613 546.448 44.4613C546.448 44.4613 550.626 44.4613 550.627 44.4613C550.815 44.4613 550.958 44.3649 551.063 44.196C551.167 44.0282 551.317 42.7561 551.317 42.7561C551.317 42.7561 553.78 45.0754 558.442 45.0754C563.916 45.0754 567.055 42.3164 567.055 32.6897C567.055 23.0628 562.041 21.8048 558.654 21.8048" fill="#979797"/>
<path d="M492.731 22.4566H488.225C488.225 22.4566 488.218 16.5432 488.218 16.5418C488.218 16.3181 488.102 16.2062 487.842 16.2062H481.702C481.464 16.2062 481.335 16.3104 481.335 16.5384V22.6505C481.335 22.6505 478.259 23.3886 478.051 23.4482C477.843 23.508 477.691 23.6978 477.691 23.9243V27.7651C477.691 28.0413 477.913 28.2641 478.187 28.2641H481.335C481.335 28.2641 481.335 32.2812 481.335 37.5041C481.335 44.3672 486.18 45.0415 489.449 45.0415C490.943 45.0415 492.73 44.5647 493.025 44.4564C493.203 44.3913 493.307 44.2077 493.307 44.0087L493.312 39.7834C493.312 39.5079 493.077 39.285 492.814 39.285C492.551 39.285 491.88 39.3911 491.188 39.3911C488.975 39.3911 488.225 38.3685 488.225 37.0451C488.225 35.7225 488.225 28.2641 488.225 28.2641H492.731C493.005 28.2641 493.228 28.0413 493.228 27.7651V22.9542C493.228 22.6785 493.005 22.4566 492.731 22.4566" fill="#979797"/>
<g clip-path="url(#clip1)">
<path d="M13.0173 126.859C14.3205 126.859 15.5248 126.622 16.6664 126.177C16.6761 126.199 18.9997 129.804 19.0332 129.829C16.9298 130.957 14.7317 131.454 12.3287 131.454C5.18516 131.454 0 126.754 0 119.251C0 111.693 5.44999 106.993 12.3287 106.993C14.7777 106.993 16.7082 107.524 18.6526 108.562C18.438 108.918 16.4364 112.311 16.4294 112.325C15.2762 111.867 14.0452 111.636 12.804 111.643C8.57084 111.643 5.29109 114.338 5.29109 119.251C5.29109 123.9 8.46491 126.859 13.0173 126.859ZM31.0343 106.993C38.0719 106.993 43.1511 111.961 43.1511 119.251C43.1511 126.488 38.0719 131.454 31.0343 131.454C24.051 131.454 18.9718 126.49 18.9718 119.251C18.9718 111.961 24.051 106.993 31.0343 106.993ZM31.0343 111.485C27.1203 111.485 24.2615 114.497 24.2615 119.251C24.2615 123.954 27.1189 126.964 31.0357 126.964C35.057 126.964 37.8614 123.954 37.8614 119.251C37.8614 114.497 35.057 111.485 31.0343 111.485ZM46.4852 130.927V107.521H51.7219V130.927H46.4852ZM45.7966 100.335C45.7966 98.5394 47.3327 97.1142 49.0778 97.1142C50.8243 97.1142 52.3575 98.5394 52.3575 100.336C52.3575 102.186 50.8243 103.665 49.0778 103.665C47.3327 103.665 45.7966 102.186 45.7966 100.336V100.335ZM56.2924 109.002C59.5722 107.734 63.5962 106.993 67.0335 106.993C73.0132 106.993 76.8226 109.265 76.8226 115.869V130.927H71.6374V116.345C71.6374 112.964 69.5215 111.748 66.6098 111.748C64.7573 111.748 62.9077 112.012 61.5305 112.435V130.927H56.2924V109.002ZM81.2091 95H86.4458V108.157C87.5567 107.575 89.7255 106.993 91.7884 106.993C98.5626 106.993 103.64 111.325 103.64 118.828C103.64 126.383 98.6156 131.454 89.9388 131.454C86.9627 131.446 84.01 130.928 81.2091 129.923V95ZM86.4458 126.49C87.4508 126.806 88.7735 126.963 90.0963 126.963C94.9107 126.963 98.3507 124.323 98.3507 118.932C98.3507 114.389 95.124 111.695 91.1556 111.695C89.0927 111.695 87.5037 112.224 86.4444 112.805V126.49H86.4458ZM118.772 115.234C118.772 112.698 116.867 111.538 114.274 111.538C111.576 111.538 109.46 112.329 107.503 113.439V108.894C109.566 107.734 112.21 106.993 115.122 106.993C120.252 106.993 123.903 109.106 123.903 114.97V130.451C121.681 131.031 118.509 131.403 115.863 131.403C109.778 131.403 105.333 129.553 105.333 124.27C105.333 119.515 109.405 117.191 116.178 117.191H118.771V115.234H118.772ZM118.772 120.676H116.55C112.898 120.676 110.516 121.734 110.516 124.111C110.516 126.541 112.741 127.492 115.915 127.492C116.709 127.492 117.82 127.386 118.772 127.227V120.676ZM127.712 124.587C129.883 126.224 132.474 127.227 134.855 127.227C137.184 127.227 138.718 126.435 138.718 124.587C138.718 122.683 137.343 121.997 134.328 121.205C129.459 120.096 127.395 118.142 127.395 114.073C127.395 109.318 130.994 106.993 135.755 106.993C138.4 106.993 140.516 107.575 142.473 108.789V113.597C140.41 112.119 138.401 111.22 135.914 111.22C133.639 111.22 132.422 112.329 132.422 113.862C132.422 115.393 133.426 116.186 136.126 116.924C141.471 118.087 143.798 120.097 143.798 124.323C143.798 129.236 140.041 131.454 134.962 131.454C132.21 131.454 129.459 130.717 127.714 129.553V124.587H127.712ZM150.968 120.413V120.519C151.285 124.692 154.882 126.963 158.532 126.963C161.76 126.963 164.089 126.224 166.416 124.692V129.29C164.3 130.768 161.178 131.454 158.164 131.454C150.862 131.454 145.888 126.806 145.888 119.41C145.888 111.961 150.754 106.995 157.211 106.995C164.035 106.995 167.263 111.379 167.263 117.77V120.415H150.968V120.413ZM162.341 117.031C162.237 113.384 160.439 111.379 157.052 111.379C154.035 111.379 151.814 113.493 151.126 117.032H162.343L162.341 117.031Z" fill="#979797"/>
</g>
<g clip-path="url(#clip2)">
<path d="M59.3318 30.8165C59.3318 37.3622 54.2111 42.1856 47.9268 42.1856C41.6425 42.1856 36.5217 37.3622 36.5217 30.8165C36.5217 24.2246 41.6425 19.4473 47.9268 19.4473C54.2111 19.4473 59.3318 24.2246 59.3318 30.8165ZM54.3392 30.8165C54.3392 26.726 51.3713 23.9273 47.9268 23.9273C44.4822 23.9273 41.5143 26.726 41.5143 30.8165C41.5143 34.8659 44.4822 37.7056 47.9268 37.7056C51.3713 37.7056 54.3392 34.8608 54.3392 30.8165Z" fill="#979797"/>
<path d="M83.9359 30.8165C83.9359 37.3622 78.8152 42.1856 72.5309 42.1856C66.2466 42.1856 61.1259 37.3622 61.1259 30.8165C61.1259 24.2297 66.2466 19.4473 72.5309 19.4473C78.8152 19.4473 83.9359 24.2246 83.9359 30.8165ZM78.9433 30.8165C78.9433 26.726 75.9754 23.9273 72.5309 23.9273C69.0863 23.9273 66.1184 26.726 66.1184 30.8165C66.1184 34.8659 69.0863 37.7056 72.5309 37.7056C75.9754 37.7056 78.9433 34.8608 78.9433 30.8165Z" fill="#979797"/>
<path d="M107.515 20.1342V40.5453C107.515 48.9415 102.563 52.3707 96.7095 52.3707C91.1992 52.3707 87.8828 48.6852 86.6321 45.6712L90.9788 43.8617C91.7528 45.7122 93.6494 47.8958 96.7044 47.8958C100.451 47.8958 102.773 45.584 102.773 41.2322V39.597H102.599C101.482 40.9759 99.3288 42.1805 96.6121 42.1805C90.9276 42.1805 85.7197 37.2289 85.7197 30.8575C85.7197 24.4399 90.9276 19.4473 96.6121 19.4473C99.3237 19.4473 101.477 20.6519 102.599 21.9897H102.773V20.1393H107.515V20.1342ZM103.127 30.8575C103.127 26.8542 100.457 23.9273 97.0581 23.9273C93.6135 23.9273 90.7277 26.8542 90.7277 30.8575C90.7277 34.8197 93.6135 37.7056 97.0581 37.7056C100.457 37.7056 103.127 34.8197 103.127 30.8575Z" fill="#979797"/>
<path d="M115.332 8.17033V41.4884H110.462V8.17033H115.332Z" fill="#979797"/>
<path d="M134.308 34.5581L138.183 37.1415C136.932 38.9919 133.918 42.1802 128.71 42.1802C122.252 42.1802 117.428 37.1876 117.428 30.8111C117.428 24.0501 122.293 19.4419 128.152 19.4419C134.051 19.4419 136.937 24.1372 137.88 26.6745L138.398 27.9662L123.2 34.2608C124.364 36.5418 126.173 37.7053 128.71 37.7053C131.253 37.7053 133.016 36.4546 134.308 34.5581ZM122.38 30.4676L132.539 26.249C131.981 24.8292 130.299 23.8399 128.321 23.8399C125.783 23.8399 122.252 26.0799 122.38 30.4676Z" fill="#979797"/>
<path d="M18.0891 27.8588V23.0354H34.3432C34.5021 23.8761 34.5841 24.8705 34.5841 25.9469C34.5841 29.5658 33.5948 34.0406 30.4066 37.2289C27.3054 40.4582 23.3431 42.1805 18.0942 42.1805C8.36537 42.1805 0.184509 34.2559 0.184509 24.527C0.184509 14.7982 8.36537 6.87358 18.0942 6.87358C23.4764 6.87358 27.3105 8.98543 30.1913 11.738L26.7877 15.1416C24.722 13.204 21.9233 11.697 18.0891 11.697C10.9847 11.697 5.42826 17.4226 5.42826 24.527C5.42826 31.6315 10.9847 37.3571 18.0891 37.3571C22.6973 37.3571 25.3217 35.5066 27.003 33.8253C28.3665 32.4619 29.2635 30.514 29.6172 27.8537L18.0891 27.8588Z" fill="#979797"/>
</g>
<g clip-path="url(#clip3)">
<path d="M276.067 120.464L274.833 123.96H274.731C274.525 123.172 274.148 121.972 273.531 120.533L266.917 103.911H260.439V130.403H264.723V114.055C264.723 113.027 264.723 111.862 264.689 110.422C264.655 109.703 264.586 109.154 264.552 108.743H264.655C264.86 109.771 265.1 110.525 265.272 111.005L273.223 130.334H276.239L284.121 110.834C284.292 110.388 284.464 109.497 284.635 108.743H284.738C284.635 110.697 284.567 112.444 284.532 113.507V130.3H289.09V103.842H282.853L276.067 120.464ZM293.409 111.314H297.864V130.3H293.409V111.314ZM295.671 103.294C294.917 103.294 294.3 103.568 293.786 104.048C293.272 104.528 292.997 105.145 292.997 105.899C292.997 106.618 293.272 107.235 293.786 107.715C294.3 108.195 294.917 108.435 295.671 108.435C296.425 108.435 297.076 108.161 297.556 107.715C298.07 107.235 298.344 106.618 298.344 105.899C298.344 105.179 298.07 104.562 297.556 104.048C297.11 103.568 296.459 103.294 295.671 103.294ZM313.663 111.142C312.841 110.971 311.984 110.868 311.161 110.868C309.139 110.868 307.289 111.314 305.747 112.205C304.204 113.096 302.971 114.329 302.182 115.872C301.36 117.448 300.948 119.265 300.948 121.355C300.948 123.172 301.36 124.782 302.148 126.256C302.936 127.695 304.033 128.861 305.507 129.649C306.912 130.437 308.557 130.848 310.407 130.848C312.532 130.848 314.349 130.403 315.788 129.58L315.822 129.546V125.433L315.651 125.571C315 126.05 314.246 126.462 313.492 126.702C312.704 126.976 311.984 127.113 311.367 127.113C309.585 127.113 308.18 126.599 307.186 125.468C306.158 124.371 305.644 122.863 305.644 120.978C305.644 119.025 306.158 117.482 307.22 116.351C308.283 115.22 309.688 114.638 311.401 114.638C312.841 114.638 314.314 115.118 315.651 116.077L315.822 116.214V111.862L315.788 111.828C315.206 111.588 314.554 111.314 313.663 111.142ZM328.366 111.005C327.269 111.005 326.241 111.348 325.35 112.067C324.596 112.684 324.082 113.575 323.636 114.638H323.602V111.314H319.147V130.3H323.602V120.601C323.602 118.956 323.945 117.585 324.699 116.591C325.453 115.563 326.412 115.049 327.578 115.049C327.989 115.049 328.4 115.152 328.914 115.22C329.394 115.358 329.737 115.495 329.977 115.666L330.148 115.803V111.348L330.045 111.314C329.737 111.108 329.12 111.005 328.366 111.005ZM340.498 110.902C337.379 110.902 334.877 111.828 333.13 113.644C331.347 115.46 330.491 117.962 330.491 121.115C330.491 124.063 331.382 126.462 333.095 128.209C334.809 129.923 337.139 130.814 340.053 130.814C343.103 130.814 345.536 129.889 347.284 128.038C349.066 126.187 349.923 123.72 349.923 120.67C349.923 117.654 349.1 115.255 347.421 113.507C345.81 111.759 343.445 110.902 340.498 110.902ZM344.062 125.502C343.24 126.564 341.937 127.079 340.327 127.079C338.716 127.079 337.414 126.564 336.488 125.433C335.563 124.371 335.117 122.829 335.117 120.875C335.117 118.853 335.597 117.311 336.488 116.214C337.414 115.118 338.682 114.569 340.292 114.569C341.869 114.569 343.103 115.083 343.994 116.146C344.885 117.208 345.365 118.75 345.365 120.773C345.296 122.829 344.919 124.44 344.062 125.502ZM359.862 119.196C358.456 118.613 357.565 118.168 357.154 117.791C356.811 117.448 356.64 116.968 356.64 116.351C356.64 115.837 356.846 115.323 357.36 114.981C357.874 114.638 358.456 114.467 359.313 114.467C360.067 114.467 360.855 114.604 361.609 114.809C362.363 115.015 363.049 115.323 363.597 115.735L363.769 115.872V111.691L363.666 111.656C363.152 111.451 362.466 111.245 361.644 111.074C360.821 110.937 360.067 110.868 359.45 110.868C357.325 110.868 355.578 111.382 354.207 112.513C352.836 113.575 352.185 115.015 352.185 116.694C352.185 117.585 352.322 118.373 352.63 119.025C352.939 119.676 353.384 120.293 354.001 120.807C354.618 121.287 355.509 121.835 356.743 122.349C357.771 122.795 358.559 123.137 359.039 123.411C359.519 123.686 359.827 123.994 360.067 124.234C360.239 124.508 360.341 124.851 360.341 125.296C360.341 126.564 359.382 127.181 357.428 127.181C356.674 127.181 355.886 127.044 354.961 126.736C354.035 126.427 353.179 125.982 352.459 125.468L352.288 125.331V129.683L352.39 129.717C353.041 130.026 353.83 130.232 354.789 130.471C355.749 130.643 356.606 130.78 357.36 130.78C359.656 130.78 361.541 130.266 362.877 129.135C364.248 128.038 364.968 126.633 364.968 124.817C364.968 123.549 364.625 122.418 363.871 121.561C362.877 120.738 361.644 119.881 359.862 119.196ZM376.723 110.902C373.605 110.902 371.103 111.828 369.355 113.644C367.607 115.46 366.716 117.962 366.716 121.115C366.716 124.063 367.607 126.462 369.321 128.209C371.034 129.923 373.365 130.814 376.278 130.814C379.328 130.814 381.761 129.889 383.509 128.038C385.291 126.187 386.148 123.72 386.148 120.67C386.148 117.654 385.325 115.255 383.646 113.507C382.035 111.759 379.671 110.902 376.723 110.902ZM380.253 125.502C379.431 126.564 378.128 127.079 376.518 127.079C374.873 127.079 373.605 126.564 372.679 125.433C371.754 124.371 371.308 122.829 371.308 120.875C371.308 118.853 371.788 117.311 372.679 116.214C373.605 115.118 374.873 114.569 376.483 114.569C378.026 114.569 379.294 115.083 380.185 116.146C381.076 117.208 381.556 118.75 381.556 120.773C381.556 122.829 381.11 124.44 380.253 125.502ZM409.967 114.981V111.314H405.477V105.693L405.34 105.727L401.09 106.995L400.988 107.03V111.314H394.27V108.914C394.27 107.818 394.545 106.961 395.024 106.413C395.504 105.864 396.224 105.59 397.115 105.59C397.732 105.59 398.383 105.727 399.103 106.036L399.274 106.138V102.266L399.171 102.232C398.554 102.026 397.732 101.889 396.669 101.889C395.333 101.889 394.168 102.197 393.105 102.711C392.043 103.294 391.254 104.082 390.672 105.145C390.089 106.173 389.781 107.338 389.781 108.675V111.314H386.662V114.946H389.781V130.3H394.27V114.981H400.988V124.748C400.988 128.758 402.873 130.78 406.642 130.78C407.259 130.78 407.91 130.677 408.527 130.574C409.179 130.437 409.658 130.266 409.933 130.129L409.967 130.094V126.427L409.795 126.564C409.521 126.736 409.281 126.873 408.87 126.976C408.527 127.079 408.219 127.113 407.979 127.113C407.088 127.113 406.471 126.907 406.026 126.393C405.614 125.913 405.409 125.125 405.409 123.96V114.981H409.967Z" fill="#979797"/>
<path d="M203 95H224.009V116.009H203V95Z" fill="#979797"/>
<path d="M226.202 95H247.211V116.009H226.202V95Z" fill="#979797"/>
<path d="M203 118.202H224.009V139.21H203V118.202Z" fill="#979797"/>
<path d="M226.202 118.202H247.211V139.21H226.202V118.202Z" fill="#979797"/>
</g>
<g clip-path="url(#clip4)">
<path d="M445.5 134.1V108C445.5 105.017 447.917 102.6 450.9 102.6C453.243 102.6 455.236 104.098 455.98 106.189L462.02 127.811C462.764 129.902 464.757 131.4 467.1 131.4C470.083 131.4 472.5 128.983 472.5 126V99.9" stroke="#979797" stroke-width="7.2"/>
<path d="M477.45 136.35L487.22 106.189C487.963 104.098 489.957 102.6 492.3 102.6C494.643 102.6 496.637 104.098 497.38 106.189L507.15 136.35" stroke="#979797" stroke-width="7.2"/>
<path d="M534.6 104.4H517.045C513.315 104.4 510.291 107.423 510.291 111.152C510.291 114.88 513.315 117.904 517.05 117.904H526.05C529.778 117.904 532.8 120.925 532.8 124.652C532.8 128.379 529.778 131.4 526.05 131.4L507.6 131.393" stroke="#979797" stroke-width="7.2" stroke-miterlimit="0"/>
<path d="M537.323 136.35L547.11 106.189C547.854 104.098 549.851 102.6 552.199 102.6C554.546 102.6 556.543 104.098 557.287 106.189L567.075 136.35" stroke="#979797" stroke-width="7.2"/>
</g>
<defs>
<clipPath id="clip0">
<rect width="179.789" height="56" fill="white" transform="translate(203)"/>
</clipPath>
<clipPath id="clip1">
<rect width="167.263" height="37.579" fill="white" transform="translate(0 95)"/>
</clipPath>
<clipPath id="clip2">
<rect width="139.423" height="47.1579" fill="white" transform="translate(0 6.63257)"/>
</clipPath>
<clipPath id="clip3">
<rect width="207.001" height="44.2105" fill="white" transform="translate(203 95)"/>
</clipPath>
<clipPath id="clip4">
<rect width="130.5" height="36" fill="white" transform="translate(441 99)"/>
</clipPath>
</defs>
</svg>
