<svg width="1081" height="56" viewBox="0 0 1081 56" fill="none" xmlns="http://www.w3.org/2000/svg">
<g clip-path="url(#clip0)">
<path d="M298.176 14.0701C298.176 16.0881 296.547 17.7137 294.525 17.7137C292.503 17.7137 290.875 16.0881 290.875 14.0701C290.875 12.0521 292.447 10.4264 294.525 10.4264C296.604 10.4825 298.176 12.1081 298.176 14.0701ZM283.124 21.4134C283.124 21.7497 283.124 22.3103 283.124 22.3103C283.124 22.3103 281.382 20.0681 277.675 20.0681C271.553 20.0681 266.779 24.7207 266.779 31.1672C266.779 37.5576 271.497 42.2663 277.675 42.2663C281.439 42.2663 283.124 39.968 283.124 39.968V40.9209C283.124 41.3694 283.461 41.7057 283.91 41.7057H288.459V20.6286C288.459 20.6286 284.303 20.6286 283.91 20.6286C283.461 20.6286 283.124 21.021 283.124 21.4134ZM283.124 34.9229C282.281 36.1562 280.596 37.2212 278.574 37.2212C274.979 37.2212 272.227 34.979 272.227 31.1672C272.227 27.3554 274.979 25.1131 278.574 25.1131C280.54 25.1131 282.337 26.2342 283.124 27.4114V34.9229ZM291.829 20.6286H297.221V41.7057H291.829V20.6286ZM372.372 20.0681C368.665 20.0681 366.924 22.3103 366.924 22.3103V10.4825H361.532V41.7057C361.532 41.7057 365.689 41.7057 366.082 41.7057C366.531 41.7057 366.868 41.3133 366.868 40.9209V39.968C366.868 39.968 368.609 42.2663 372.316 42.2663C378.438 42.2663 383.213 37.5576 383.213 31.1672C383.213 24.7768 378.438 20.0681 372.372 20.0681ZM371.474 37.1652C369.396 37.1652 367.767 36.1001 366.924 34.8669V27.3554C367.767 26.2342 369.564 25.0571 371.474 25.0571C375.068 25.0571 377.821 27.2993 377.821 31.1111C377.821 34.9229 375.068 37.1652 371.474 37.1652ZM358.724 29.2052V41.7618H353.332V29.8218C353.332 26.3463 352.209 24.9449 349.176 24.9449C347.547 24.9449 345.862 25.7858 344.795 27.019V41.7057H339.403V20.6286H343.671C344.121 20.6286 344.458 21.021 344.458 21.4134V22.3103C346.03 20.6847 348.108 20.0681 350.187 20.0681C352.546 20.0681 354.511 20.7407 356.084 22.0861C357.994 23.6557 358.724 25.6737 358.724 29.2052ZM326.316 20.0681C322.609 20.0681 320.868 22.3103 320.868 22.3103V10.4825H315.476V41.7057C315.476 41.7057 319.632 41.7057 320.025 41.7057C320.474 41.7057 320.811 41.3133 320.811 40.9209V39.968C320.811 39.968 322.553 42.2663 326.26 42.2663C332.382 42.2663 337.156 37.5576 337.156 31.1672C337.212 24.7768 332.438 20.0681 326.316 20.0681ZM325.417 37.1652C323.339 37.1652 321.71 36.1001 320.868 34.8669V27.3554C321.71 26.2342 323.507 25.0571 325.417 25.0571C329.012 25.0571 331.764 27.2993 331.764 31.1111C331.764 34.9229 329.012 37.1652 325.417 37.1652ZM310.814 20.0681C312.443 20.0681 313.285 20.3483 313.285 20.3483V25.3373C313.285 25.3373 308.792 23.8238 305.983 27.019V41.7618H300.591V20.6286C300.591 20.6286 304.748 20.6286 305.141 20.6286C305.59 20.6286 305.927 21.021 305.927 21.4134V22.3103C306.938 21.1331 309.129 20.0681 310.814 20.0681ZM254.816 39.7998C254.535 39.1271 254.254 38.3984 253.973 37.7818C253.524 36.7728 253.074 35.8198 252.681 34.9229L252.625 34.8669C248.75 26.4585 244.593 17.9379 240.212 9.52953L240.044 9.19319C239.594 8.35235 239.145 7.45545 238.696 6.55856C238.134 5.54955 237.572 4.48448 236.674 3.47548C234.876 1.23323 232.293 0 229.541 0C226.732 0 224.205 1.23323 222.351 3.36336C221.509 4.37237 220.891 5.43744 220.329 6.44645C219.88 7.34334 219.431 8.24024 218.981 9.08108L218.813 9.41742C214.488 17.8258 210.275 26.3463 206.4 34.7548L206.344 34.8669C205.951 35.7638 205.501 36.7167 205.052 37.7257C204.771 38.3423 204.49 39.015 204.209 39.7437C203.479 41.8178 203.255 43.7798 203.535 45.7978C204.153 50.002 206.962 53.5335 210.837 55.1031C212.297 55.7197 213.814 56 215.387 56C215.836 56 216.398 55.9439 216.847 55.8879C218.7 55.6637 220.61 55.047 222.464 53.982C224.766 52.6927 226.957 50.8428 229.428 48.1521C231.9 50.8428 234.146 52.6927 236.393 53.982C238.246 55.047 240.156 55.6637 242.01 55.8879C242.459 55.9439 243.021 56 243.47 56C245.043 56 246.615 55.7197 248.019 55.1031C251.951 53.5335 254.703 49.9459 255.321 45.7978C255.77 43.8358 255.546 41.8739 254.816 39.7998ZM229.484 42.7147C226.451 38.9029 224.486 35.3153 223.812 32.2883C223.531 30.999 223.475 29.8779 223.643 28.8689C223.755 27.972 224.092 27.1872 224.542 26.5145C225.609 25.001 227.406 24.048 229.484 24.048C231.563 24.048 233.416 24.9449 234.427 26.5145C234.876 27.1872 235.213 27.972 235.326 28.8689C235.494 29.8779 235.438 31.0551 235.157 32.2883C234.483 35.2593 232.517 38.8468 229.484 42.7147ZM251.895 45.3493C251.502 48.2643 249.536 50.7868 246.784 51.9079C245.436 52.4685 243.975 52.6366 242.515 52.4685C241.111 52.3003 239.707 51.8518 238.246 51.011C236.224 49.8899 234.202 48.1521 231.843 45.5736C235.55 41.033 237.797 36.8849 238.64 33.1852C239.033 31.4474 239.089 29.8779 238.92 28.4204C238.696 27.019 238.19 25.7297 237.404 24.6086C235.663 22.0861 232.742 20.6286 229.484 20.6286C226.227 20.6286 223.306 22.1421 221.565 24.6086C220.779 25.7297 220.273 27.019 220.048 28.4204C219.824 29.8779 219.88 31.5035 220.329 33.1852C221.172 36.8849 223.475 41.0891 227.125 45.6296C224.823 48.2082 222.744 49.9459 220.722 51.0671C219.262 51.9079 217.858 52.3563 216.454 52.5245C214.937 52.6927 213.477 52.4685 212.185 51.964C209.433 50.8428 207.467 48.3203 207.074 45.4054C206.905 44.004 207.018 42.6026 207.579 41.033C207.748 40.4725 208.029 39.9119 208.31 39.2392C208.703 38.3423 209.152 37.3894 209.601 36.4364L209.658 36.3243C213.533 27.972 217.689 19.4515 222.014 11.1552L222.183 10.8188C222.632 9.97798 223.081 9.08108 223.531 8.24024C223.98 7.34334 224.486 6.5025 225.103 5.77377C226.283 4.42843 227.856 3.6997 229.597 3.6997C231.338 3.6997 232.911 4.42843 234.09 5.77377C234.708 6.5025 235.213 7.34334 235.663 8.24024C236.112 9.08108 236.561 9.97798 237.011 10.8188L237.179 11.1552C241.448 19.5075 245.604 28.028 249.48 36.3804V36.4364C249.929 37.3333 250.322 38.3423 250.772 39.2392C251.052 39.9119 251.333 40.4725 251.502 41.033C251.951 42.4905 252.12 43.8919 251.895 45.3493Z" fill="#979797"/>
</g>
<path d="M473.777 22.5968H463.11C462.835 22.5968 462.611 22.8187 462.611 23.0924V28.2748C462.611 28.5483 462.835 28.7709 463.11 28.7709H467.271V35.2097C467.271 35.2097 466.337 35.5262 463.753 35.5262C460.706 35.5262 456.448 34.4196 456.448 25.1166C456.448 15.8116 460.882 14.5873 465.044 14.5873C468.646 14.5873 470.198 15.2177 471.186 15.5214C471.496 15.6159 471.783 15.3089 471.783 15.0352L472.973 10.0278C472.973 9.89987 472.93 9.74568 472.783 9.64088C472.382 9.35668 469.935 7.99609 463.753 7.99609C456.632 7.99609 449.328 11.0067 449.328 25.4794C449.328 39.9526 457.691 42.1093 464.738 42.1093C470.573 42.1093 474.113 39.6314 474.113 39.6314C474.259 39.5512 474.275 39.3487 474.275 39.2557V23.0924C474.275 22.8187 474.052 22.5968 473.777 22.5968" fill="#979797"/>
<path d="M528.751 9.73069C528.751 9.4549 528.531 9.23242 528.256 9.23242H522.249C521.975 9.23242 521.752 9.4549 521.752 9.73069C521.752 9.73201 521.753 21.2648 521.753 21.2648H512.391V9.73069C512.391 9.4549 512.17 9.23242 511.896 9.23242H505.89C505.616 9.23242 505.394 9.4549 505.394 9.73069V40.962C505.394 41.2375 505.616 41.4618 505.89 41.4618H511.896C512.17 41.4618 512.391 41.2375 512.391 40.962V27.6033H521.753C521.753 27.6033 521.737 40.961 521.737 40.962C521.737 41.2375 521.96 41.4618 522.234 41.4618H528.255C528.53 41.4618 528.75 41.2375 528.751 40.962V9.73069Z" fill="#979797"/>
<path d="M485.111 13.8292C485.111 11.6801 483.377 9.94336 481.238 9.94336C479.101 9.94336 477.365 11.6801 477.365 13.8292C477.365 15.976 479.101 17.7174 481.238 17.7174C483.377 17.7174 485.111 15.976 485.111 13.8292Z" fill="#979797"/>
<path d="M484.681 34.3739C484.681 33.5737 484.681 19.9575 484.681 19.9575C484.681 19.6837 484.459 19.46 484.184 19.46H478.197C477.923 19.46 477.677 19.7415 477.677 20.0151C477.677 20.0151 477.677 37.3627 477.677 40.6696C477.677 41.2767 478.057 41.457 478.55 41.457C478.55 41.457 481.106 41.457 483.944 41.457C484.536 41.457 484.681 41.1684 484.681 40.6599C484.681 39.5527 484.681 35.2158 484.681 34.3739" fill="#979797"/>
<path d="M551.577 19.5068H545.617C545.343 19.5068 545.121 19.7307 545.121 20.0062V35.3199C545.121 35.3199 543.607 36.4207 541.458 36.4207C539.309 36.4207 538.738 35.4517 538.738 33.3607C538.738 31.2671 538.738 20.0062 538.738 20.0062C538.738 19.7307 538.516 19.5068 538.243 19.5068H532.193C531.92 19.5068 531.697 19.7307 531.697 20.0062C531.697 20.0062 531.697 28.1613 531.697 34.3719C531.697 40.5829 535.18 42.1023 539.973 42.1023C543.904 42.1023 547.074 39.9441 547.074 39.9441C547.074 39.9441 547.225 41.0814 547.293 41.2163C547.361 41.3508 547.539 41.4867 547.731 41.4867L551.58 41.4699C551.853 41.4699 552.076 41.2456 552.076 40.9713L552.074 20.0062C552.074 19.7307 551.852 19.5068 551.577 19.5068" fill="#979797"/>
<path d="M565.516 36.4019C563.449 36.3394 562.047 35.4072 562.047 35.4072V25.5169C562.047 25.5169 563.43 24.6743 565.127 24.5237C567.274 24.3326 569.342 24.9769 569.342 30.0647C569.342 35.4298 568.408 36.4885 565.516 36.4019ZM567.867 18.8053C564.482 18.8053 562.179 20.3062 562.179 20.3062V9.73069C562.179 9.4549 561.957 9.23242 561.684 9.23242H555.66C555.387 9.23242 555.164 9.4549 555.164 9.73069V40.962C555.164 41.2375 555.387 41.4618 555.661 41.4618C555.662 41.4618 559.839 41.4618 559.84 41.4618C560.028 41.4618 560.171 41.3654 560.276 41.1965C560.38 41.0287 560.53 39.7566 560.53 39.7566C560.53 39.7566 562.993 42.0759 567.655 42.0759C573.129 42.0759 576.268 39.3169 576.268 29.6902C576.268 20.0633 571.255 18.8053 567.867 18.8053" fill="#979797"/>
<path d="M501.944 19.4565H497.438C497.438 19.4565 497.431 13.543 497.431 13.5417C497.431 13.3179 497.315 13.2061 497.055 13.2061H490.915C490.677 13.2061 490.548 13.3103 490.548 13.5383V19.6504C490.548 19.6504 487.472 20.3885 487.264 20.4481C487.056 20.5078 486.904 20.6976 486.904 20.9242V24.765C486.904 25.0412 487.126 25.264 487.4 25.264H490.548C490.548 25.264 490.548 29.2811 490.548 34.504C490.548 41.3671 495.393 42.0414 498.662 42.0414C500.156 42.0414 501.943 41.5646 502.238 41.4563C502.416 41.3912 502.52 41.2076 502.52 41.0086L502.525 36.7833C502.525 36.5078 502.29 36.2849 502.027 36.2849C501.764 36.2849 501.093 36.391 500.401 36.391C498.188 36.391 497.438 35.3684 497.438 34.045C497.438 32.7224 497.438 25.264 497.438 25.264H501.944C502.218 25.264 502.441 25.0412 502.441 24.765V19.9541C502.441 19.6784 502.218 19.4565 501.944 19.4565" fill="#979797"/>
<g clip-path="url(#clip1)">
<path d="M655.388 37.0168C656.691 37.0168 657.895 36.7802 659.037 36.3348C659.047 36.3571 661.37 39.9619 661.404 39.9869C659.3 41.1157 657.102 41.6126 654.699 41.6126C647.556 41.6126 642.371 36.9124 642.371 29.4092C642.371 21.8516 647.821 17.1515 654.699 17.1515C657.148 17.1515 659.079 17.6817 661.023 18.72C660.809 19.0763 658.807 22.4696 658.8 22.4835C657.647 22.0253 656.416 21.7937 655.175 21.8015C650.941 21.8015 647.662 24.4961 647.662 29.4092C647.662 34.0578 650.836 37.0168 655.388 37.0168ZM673.405 17.1515C680.442 17.1515 685.522 22.1188 685.522 29.4092C685.522 36.6466 680.442 41.6126 673.405 41.6126C666.422 41.6126 661.342 36.648 661.342 29.4092C661.342 22.1188 666.422 17.1515 673.405 17.1515ZM673.405 21.6428C669.491 21.6428 666.632 24.6547 666.632 29.4092C666.632 34.1121 669.49 37.1226 673.406 37.1226C677.428 37.1226 680.232 34.1121 680.232 29.4092C680.232 24.6547 677.428 21.6428 673.405 21.6428ZM688.856 41.0851V17.679H694.093V41.0851H688.856ZM688.167 10.493C688.167 8.69758 689.703 7.27237 691.448 7.27237C693.195 7.27237 694.728 8.69758 694.728 10.4944C694.728 12.3441 693.195 13.8236 691.448 13.8236C689.703 13.8236 688.167 12.3441 688.167 10.4944V10.493ZM698.663 19.1598C701.943 17.8919 705.967 17.1515 709.404 17.1515C715.384 17.1515 719.193 19.4229 719.193 26.0271V41.0851H714.008V26.5031C714.008 23.1223 711.892 21.9059 708.98 21.9059C707.128 21.9059 705.278 22.1703 703.901 22.5934V41.0851H698.663V19.1598ZM723.58 5.1582H728.816V18.315C729.927 17.7332 732.096 17.1515 734.159 17.1515C740.933 17.1515 746.011 21.4828 746.011 28.986C746.011 36.5408 740.986 41.6126 732.309 41.6126C729.333 41.6039 726.381 41.0861 723.58 40.0816V5.1582ZM728.816 36.648C729.821 36.9639 731.144 37.1212 732.467 37.1212C737.281 37.1212 740.721 34.4809 740.721 29.0904C740.721 24.5476 737.495 21.853 733.526 21.853C731.463 21.853 729.874 22.3819 728.815 22.9637V36.648H728.816ZM761.143 25.3924C761.143 22.8565 759.237 21.6957 756.645 21.6957C753.946 21.6957 751.83 22.4877 749.873 23.5969V19.0527C751.936 17.8919 754.58 17.1515 757.492 17.1515C762.623 17.1515 766.274 19.2642 766.274 25.1279V40.6091C764.052 41.1895 760.879 41.5611 758.234 41.5611C752.148 41.5611 747.703 39.7114 747.703 34.428C747.703 29.6736 751.776 27.3493 758.549 27.3493H761.141V25.3924H761.143ZM761.143 30.8344H758.921C755.269 30.8344 752.887 31.8922 752.887 34.2694C752.887 36.6995 755.112 37.6501 758.285 37.6501C759.08 37.6501 760.191 37.5443 761.143 37.3856V30.8344ZM770.083 34.7454C772.253 36.3821 774.844 37.3856 777.225 37.3856C779.554 37.3856 781.089 36.5937 781.089 34.7454C781.089 32.8414 779.713 32.1552 776.698 31.3633C771.829 30.254 769.765 28.2999 769.765 24.2316C769.765 19.4758 773.364 17.1515 778.126 17.1515C780.771 17.1515 782.887 17.7332 784.844 18.9469V23.7556C782.781 22.2775 780.771 21.3784 778.284 21.3784C776.01 21.3784 774.793 22.4877 774.793 24.0201C774.793 25.5511 775.796 26.3444 778.496 27.082C783.842 28.2456 786.168 30.2554 786.168 34.4809C786.168 39.394 782.412 41.6126 777.332 41.6126C774.581 41.6126 771.829 40.8749 770.084 39.7114V34.7454H770.083ZM793.338 30.5713V30.6771C793.656 34.8498 797.252 37.1212 800.903 37.1212C804.131 37.1212 806.46 36.3821 808.786 34.8498V39.4483C806.67 40.9264 803.548 41.6126 800.535 41.6126C793.232 41.6126 788.259 36.9639 788.259 29.5678C788.259 22.1188 793.125 17.1529 799.581 17.1529C806.406 17.1529 809.634 21.5371 809.634 27.9283V30.5727H793.338V30.5713ZM804.712 27.1892C804.607 23.5427 802.809 21.5371 799.422 21.5371C796.406 21.5371 794.184 23.6512 793.497 27.1906H804.713L804.712 27.1892Z" fill="#979797"/>
</g>
<g clip-path="url(#clip2)">
<path d="M59.3316 30.8164C59.3316 37.3621 54.2108 42.1856 47.9265 42.1856C41.6422 42.1856 36.5215 37.3621 36.5215 30.8164C36.5215 24.2246 41.6422 19.4473 47.9265 19.4473C54.2108 19.4473 59.3316 24.2246 59.3316 30.8164ZM54.339 30.8164C54.339 26.726 51.3711 23.9273 47.9265 23.9273C44.4819 23.9273 41.5141 26.726 41.5141 30.8164C41.5141 34.8659 44.4819 37.7056 47.9265 37.7056C51.3711 37.7056 54.339 34.8607 54.339 30.8164Z" fill="#979797"/>
<path d="M83.936 30.8164C83.936 37.3621 78.8153 42.1856 72.531 42.1856C66.2467 42.1856 61.126 37.3621 61.126 30.8164C61.126 24.2297 66.2467 19.4473 72.531 19.4473C78.8153 19.4473 83.936 24.2246 83.936 30.8164ZM78.9434 30.8164C78.9434 26.726 75.9756 23.9273 72.531 23.9273C69.0864 23.9273 66.1186 26.726 66.1186 30.8164C66.1186 34.8659 69.0864 37.7056 72.531 37.7056C75.9756 37.7056 78.9434 34.8607 78.9434 30.8164Z" fill="#979797"/>
<path d="M107.515 20.1341V40.5453C107.515 48.9414 102.563 52.3706 96.7096 52.3706C91.1993 52.3706 87.8828 48.6851 86.6321 45.6711L90.9789 43.8617C91.7529 45.7121 93.6494 47.8958 96.7044 47.8958C100.451 47.8958 102.773 45.584 102.773 41.2322V39.597H102.599C101.482 40.9759 99.3289 42.1804 96.6122 42.1804C90.9276 42.1804 85.7197 37.2289 85.7197 30.8574C85.7197 24.4398 90.9276 19.4473 96.6122 19.4473C99.3237 19.4473 101.477 20.6518 102.599 21.9897H102.773V20.1393H107.515V20.1341ZM103.127 30.8574C103.127 26.8541 100.457 23.9273 97.0581 23.9273C93.6135 23.9273 90.7277 26.8541 90.7277 30.8574C90.7277 34.8197 93.6135 37.7056 97.0581 37.7056C100.457 37.7056 103.127 34.8197 103.127 30.8574Z" fill="#979797"/>
<path d="M115.332 8.1709V41.489H110.462V8.1709H115.332Z" fill="#979797"/>
<path d="M134.308 34.5585L138.183 37.142C136.932 38.9924 133.918 42.1807 128.71 42.1807C122.252 42.1807 117.428 37.1881 117.428 30.8115C117.428 24.0505 122.293 19.4424 128.152 19.4424C134.051 19.4424 136.937 24.1377 137.88 26.675L138.398 27.9667L123.2 34.2612C124.364 36.5422 126.173 37.7058 128.71 37.7058C131.253 37.7058 133.016 36.4551 134.308 34.5585ZM122.38 30.4681L132.539 26.2495C131.981 24.8297 130.299 23.8404 128.321 23.8404C125.783 23.8404 122.252 26.0804 122.38 30.4681Z" fill="#979797"/>
<path d="M18.0892 27.8593V23.0359H34.3433C34.5022 23.8765 34.5842 24.8709 34.5842 25.9473C34.5842 29.5662 33.5949 34.0411 30.4066 37.2294C27.3055 40.4586 23.3432 42.1809 18.0943 42.1809C8.36544 42.1809 0.18457 34.2564 0.18457 24.5275C0.18457 14.7986 8.36544 6.87402 18.0943 6.87402C23.4765 6.87402 27.3106 8.98588 30.1913 11.7385L26.7878 15.142C24.722 13.2045 21.9233 11.6975 18.0892 11.6975C10.9847 11.6975 5.42832 17.423 5.42832 24.5275C5.42832 31.6319 10.9847 37.3575 18.0892 37.3575C22.6973 37.3575 25.3218 35.5071 27.003 33.8258C28.3665 32.4623 29.2635 30.5145 29.6172 27.8542L18.0892 27.8593Z" fill="#979797"/>
</g>
<g clip-path="url(#clip3)">
<path d="M946.701 30.6221L945.467 34.1179H945.365C945.159 33.3296 944.782 32.1301 944.165 30.6907L937.551 14.0689H931.073V40.5609H935.357V24.2133C935.357 23.1852 935.357 22.0199 935.323 20.5805C935.289 19.8608 935.22 19.3125 935.186 18.9012H935.289C935.494 19.9294 935.734 20.6833 935.906 21.1632L943.857 40.4924H946.872L954.755 20.9918C954.926 20.5463 955.098 19.6552 955.269 18.9012H955.372C955.269 20.8547 955.201 22.6026 955.166 23.665V40.4581H959.724V14.0004H953.487L946.701 30.6221ZM964.043 21.4716H968.498V40.4581H964.043V21.4716ZM966.305 13.452C965.551 13.452 964.934 13.7262 964.42 14.206C963.906 14.6858 963.631 15.3027 963.631 16.0567C963.631 16.7764 963.906 17.3933 964.42 17.8731C964.934 18.3529 965.551 18.5928 966.305 18.5928C967.059 18.5928 967.71 18.3186 968.189 17.8731C968.704 17.3933 968.978 16.7764 968.978 16.0567C968.978 15.337 968.704 14.7201 968.189 14.206C967.744 13.7262 967.093 13.452 966.305 13.452ZM984.297 21.3002C983.475 21.1289 982.618 21.0261 981.795 21.0261C979.773 21.0261 977.923 21.4716 976.38 22.3627C974.838 23.2537 973.604 24.4875 972.816 26.0297C971.994 27.6062 971.582 29.4226 971.582 31.5132C971.582 33.3296 971.994 34.9404 972.782 36.4141C973.57 37.8535 974.667 39.0187 976.141 39.807C977.546 40.5952 979.191 41.0065 981.041 41.0065C983.166 41.0065 984.983 40.5609 986.422 39.7384L986.456 39.7042V35.5915L986.285 35.7286C985.634 36.2084 984.88 36.6197 984.126 36.8596C983.338 37.1338 982.618 37.2709 982.001 37.2709C980.219 37.2709 978.814 36.7568 977.82 35.6258C976.792 34.5291 976.278 33.0212 976.278 31.1362C976.278 29.1827 976.792 27.6405 977.854 26.5095C978.917 25.3786 980.322 24.796 982.035 24.796C983.475 24.796 984.948 25.2758 986.285 26.2354L986.456 26.3725V22.0199L986.422 21.9857C985.839 21.7458 985.188 21.4716 984.297 21.3002ZM999 21.1632C997.903 21.1632 996.875 21.5059 995.984 22.2256C995.23 22.8425 994.716 23.7335 994.27 24.796H994.236V21.4716H989.781V40.4581H994.236V30.7592C994.236 29.1142 994.579 27.7433 995.333 26.7494C996.087 25.7213 997.046 25.2072 998.212 25.2072C998.623 25.2072 999.034 25.31 999.548 25.3786C1000.03 25.5157 1000.37 25.6527 1000.61 25.8241L1000.78 25.9612V21.5059L1000.68 21.4716C1000.37 21.266 999.754 21.1632 999 21.1632ZM1011.13 21.0603C1008.01 21.0603 1005.51 21.9857 1003.76 23.8021C1001.98 25.6185 1001.12 28.1203 1001.12 31.2733C1001.12 34.2207 1002.02 36.6197 1003.73 38.3676C1005.44 40.0811 1007.77 40.9722 1010.69 40.9722C1013.74 40.9722 1016.17 40.0469 1017.92 38.1962C1019.7 36.3455 1020.56 33.878 1020.56 30.8278C1020.56 27.8119 1019.73 25.4128 1018.05 23.665C1016.44 21.9171 1014.08 21.0603 1011.13 21.0603ZM1014.7 35.6601C1013.87 36.7225 1012.57 37.2366 1010.96 37.2366C1009.35 37.2366 1008.05 36.7225 1007.12 35.5915C1006.2 34.5291 1005.75 32.9869 1005.75 31.0334C1005.75 29.0114 1006.23 27.4692 1007.12 26.3725C1008.05 25.2758 1009.32 24.7274 1010.93 24.7274C1012.5 24.7274 1013.74 25.2415 1014.63 26.3039C1015.52 27.3663 1016 28.9086 1016 30.9306C1015.93 32.9869 1015.55 34.5977 1014.7 35.6601ZM1030.5 29.3541C1029.09 28.7715 1028.2 28.3259 1027.79 27.949C1027.45 27.6062 1027.27 27.1264 1027.27 26.5095C1027.27 25.9955 1027.48 25.4814 1027.99 25.1387C1028.51 24.796 1029.09 24.6246 1029.95 24.6246C1030.7 24.6246 1031.49 24.7617 1032.24 24.9673C1033 25.1729 1033.68 25.4814 1034.23 25.8927L1034.4 26.0297V21.8486L1034.3 21.8143C1033.79 21.6087 1033.1 21.4031 1032.28 21.2317C1031.46 21.0946 1030.7 21.0261 1030.08 21.0261C1027.96 21.0261 1026.21 21.5401 1024.84 22.6711C1023.47 23.7335 1022.82 25.1729 1022.82 26.8523C1022.82 27.7433 1022.96 28.5316 1023.26 29.1827C1023.57 29.8339 1024.02 30.4508 1024.64 30.9649C1025.25 31.4447 1026.14 31.993 1027.38 32.5071C1028.4 32.9526 1029.19 33.2953 1029.67 33.5695C1030.15 33.8437 1030.46 34.1521 1030.7 34.392C1030.87 34.6662 1030.98 35.0089 1030.98 35.4545C1030.98 36.7225 1030.02 37.3394 1028.06 37.3394C1027.31 37.3394 1026.52 37.2023 1025.59 36.8939C1024.67 36.5854 1023.81 36.1399 1023.09 35.6258L1022.92 35.4887V39.8412L1023.02 39.8755C1023.68 40.184 1024.46 40.3896 1025.42 40.6295C1026.38 40.8008 1027.24 40.9379 1027.99 40.9379C1030.29 40.9379 1032.17 40.4239 1033.51 39.2929C1034.88 38.1962 1035.6 36.7911 1035.6 34.9747C1035.6 33.7066 1035.26 32.5756 1034.51 31.7188C1033.51 30.8963 1032.28 30.0395 1030.5 29.3541ZM1047.36 21.0603C1044.24 21.0603 1041.74 21.9857 1039.99 23.8021C1038.24 25.6185 1037.35 28.1203 1037.35 31.2733C1037.35 34.2207 1038.24 36.6197 1039.95 38.3676C1041.67 40.0811 1044 40.9722 1046.91 40.9722C1049.96 40.9722 1052.4 40.0469 1054.14 38.1962C1055.93 36.3455 1056.78 33.878 1056.78 30.8278C1056.78 27.8119 1055.96 25.4128 1054.28 23.665C1052.67 21.9171 1050.3 21.0603 1047.36 21.0603ZM1050.89 35.6601C1050.06 36.7225 1048.76 37.2366 1047.15 37.2366C1045.51 37.2366 1044.24 36.7225 1043.31 35.5915C1042.39 34.5291 1041.94 32.9869 1041.94 31.0334C1041.94 29.0114 1042.42 27.4692 1043.31 26.3725C1044.24 25.2758 1045.51 24.7274 1047.12 24.7274C1048.66 24.7274 1049.93 25.2415 1050.82 26.3039C1051.71 27.3663 1052.19 28.9086 1052.19 30.9306C1052.19 32.9869 1051.74 34.5977 1050.89 35.6601ZM1080.6 25.1387V21.4716H1076.11V15.851L1075.97 15.8853L1071.72 17.1534L1071.62 17.1876V21.4716H1064.9V19.0726C1064.9 17.9759 1065.18 17.1191 1065.66 16.5707C1066.14 16.0224 1066.86 15.7482 1067.75 15.7482C1068.37 15.7482 1069.02 15.8853 1069.74 16.1938L1069.91 16.2966V12.4239L1069.81 12.3896C1069.19 12.184 1068.37 12.0469 1067.3 12.0469C1065.97 12.0469 1064.8 12.3553 1063.74 12.8694C1062.68 13.452 1061.89 14.2403 1061.31 15.3027C1060.72 16.3308 1060.41 17.4961 1060.41 18.8327V21.4716H1057.3V25.1044H1060.41V40.4581H1064.9V25.1387H1071.62V34.9061C1071.62 38.9159 1073.51 40.9379 1077.28 40.9379C1077.89 40.9379 1078.54 40.8351 1079.16 40.7323C1079.81 40.5952 1080.29 40.4239 1080.57 40.2868L1080.6 40.2525V36.5854L1080.43 36.7225C1080.16 36.8939 1079.92 37.031 1079.5 37.1338C1079.16 37.2366 1078.85 37.2709 1078.61 37.2709C1077.72 37.2709 1077.1 37.0652 1076.66 36.5512C1076.25 36.0714 1076.04 35.2831 1076.04 34.1179V25.1387H1080.6Z" fill="#979797"/>
<path d="M873.634 5.1582H894.642V26.1668H873.634V5.1582Z" fill="#979797"/>
<path d="M896.836 5.1582H917.844V26.1668H896.836V5.1582Z" fill="#979797"/>
<path d="M873.634 28.3604H894.642V49.3689H873.634V28.3604Z" fill="#979797"/>
<path d="M896.836 28.3604H917.844V49.3689H896.836V28.3604Z" fill="#979797"/>
</g>
<defs>
<clipPath id="clip0">
<rect width="179.789" height="56" fill="white" transform="translate(203.423)"/>
</clipPath>
<clipPath id="clip1">
<rect width="167.263" height="37.579" fill="white" transform="translate(642.371 5.1582)"/>
</clipPath>
<clipPath id="clip2">
<rect width="139.423" height="47.1579" fill="white" transform="translate(0 6.63281)"/>
</clipPath>
<clipPath id="clip3">
<rect width="207.001" height="44.2105" fill="white" transform="translate(873.634 5.1582)"/>
</clipPath>
</defs>
</svg>
